<svg width="150" height="110" viewBox="0 0 150 110" fill="none" xmlns="http://www.w3.org/2000/svg">
<path d="M12.9844 5.67432H24.5391V61.3332H12.9844V5.67432Z" fill="white"/>
<path d="M55.6159 53.2902C58.3598 53.2902 60.5877 52.9881 62.2995 52.3839C65.5469 51.226 67.1706 49.0736 67.1706 45.9269C67.1706 44.0892 66.365 42.6669 64.7539 41.66C63.1428 40.6782 60.6128 39.8097 57.1641 39.0545L51.2734 37.7329C45.4835 36.4239 41.4809 35.0016 39.2656 33.466C35.5148 30.8983 33.6393 26.8831 33.6393 21.4204C33.6393 16.436 35.4518 12.295 39.0768 8.99723C42.7018 5.69949 48.026 4.05062 55.0495 4.05062C60.9149 4.05062 65.9119 5.61138 70.0404 8.73291C74.194 11.8293 76.3715 16.3353 76.5729 22.2511H65.3958C65.1944 18.903 63.7344 16.5241 61.0156 15.1144C59.2031 14.183 56.9501 13.7173 54.2565 13.7173C51.2608 13.7173 48.8694 14.3214 47.082 15.5298C45.2947 16.7381 44.401 18.4247 44.401 20.5897C44.401 22.5784 45.2821 24.0636 47.0443 25.0454C48.1771 25.6999 50.5937 26.4677 54.2943 27.3488L63.8854 29.6522C68.0894 30.6591 71.2613 32.0059 73.401 33.6925C76.7239 36.3106 78.3854 40.0992 78.3854 45.0584C78.3854 50.1435 76.4344 54.3727 72.5325 57.7459C68.6558 61.094 63.168 62.7681 56.069 62.7681C48.819 62.7681 43.1172 61.1192 38.9635 57.8214C34.8099 54.4985 32.7331 49.9421 32.7331 44.1522H43.8346C44.1871 46.6947 44.8793 48.5953 45.9114 49.854C47.7995 52.1448 51.0343 53.2902 55.6159 53.2902Z" fill="white"/>
<path d="M111.615 62.8813C103.66 62.8813 97.5803 60.7164 93.3763 56.3865C87.7374 51.0749 84.918 43.4221 84.918 33.4282C84.918 23.2329 87.7374 15.5801 93.3763 10.4699C97.5803 6.14003 103.66 3.9751 111.615 3.9751C119.569 3.9751 125.649 6.14003 129.853 10.4699C135.467 15.5801 138.273 23.2329 138.273 33.4282C138.273 43.4221 135.467 51.0749 129.853 56.3865C125.649 60.7164 119.569 62.8813 111.615 62.8813ZM122.603 47.9282C125.296 44.5298 126.643 39.6964 126.643 33.4282C126.643 27.1852 125.284 22.3644 122.565 18.966C119.872 15.5424 116.221 13.8306 111.615 13.8306C107.008 13.8306 103.332 15.5298 100.589 18.9282C97.8446 22.3267 96.4726 27.16 96.4726 33.4282C96.4726 39.6964 97.8446 44.5298 100.589 47.9282C103.332 51.3266 107.008 53.0259 111.615 53.0259C116.221 53.0259 119.884 51.3266 122.603 47.9282Z" fill="white"/>
<path d="M35.6822 83.0313C35.7277 83.8795 36.055 84.4658 36.6641 84.7903C36.9772 84.9611 37.3302 85.0465 37.7229 85.0465C38.4573 85.0465 39.0835 84.7419 39.6015 84.1328C40.1195 83.518 40.4867 82.2742 40.703 80.4013C40.3615 80.9421 39.9374 81.3235 39.4307 81.5455C38.9298 81.7618 38.389 81.87 37.8083 81.87C36.63 81.87 35.6964 81.5028 35.0076 80.7685C34.3245 80.0341 33.9829 79.0891 33.9829 77.9335C33.9829 76.8235 34.3216 75.8472 34.999 75.0047C35.6765 74.1622 36.6755 73.7409 37.9962 73.7409C39.778 73.7409 41.0076 74.5436 41.685 76.1489C42.0607 77.0313 42.2486 78.1356 42.2486 79.462C42.2486 80.9592 42.0237 82.2855 41.574 83.4411C40.8283 85.3652 39.5645 86.3273 37.7827 86.3273C36.5873 86.3273 35.6793 86.0142 35.0588 85.388C34.4383 84.7618 34.1281 83.9762 34.1281 83.0313H35.6822ZM38.0133 80.5208C38.6224 80.5208 39.1774 80.3216 39.6784 79.9231C40.185 79.5189 40.4383 78.8159 40.4383 77.814C40.4383 76.9146 40.2106 76.2457 39.7552 75.8074C39.3055 75.3633 38.7305 75.1413 38.0303 75.1413C37.2789 75.1413 36.6812 75.3946 36.2372 75.9013C35.7988 76.4022 35.5797 77.074 35.5797 77.9165C35.5797 78.7134 35.7732 79.3482 36.1603 79.8206C36.5474 80.2874 37.1651 80.5208 38.0133 80.5208Z" fill="#838D97"/>
<path d="M47.8245 73.758C49.407 73.758 50.5512 74.4098 51.2571 75.7134C51.8036 76.721 52.0768 78.1015 52.0768 79.8548C52.0768 81.517 51.8292 82.8918 51.334 83.9791C50.6167 85.5389 49.444 86.3187 47.8159 86.3187C46.3472 86.3187 45.2543 85.6812 44.537 84.406C43.9393 83.3415 43.6404 81.9127 43.6404 80.1195C43.6404 78.7305 43.8197 77.5379 44.1784 76.5417C44.8501 74.6859 46.0655 73.758 47.8245 73.758ZM47.8074 84.9184C48.6044 84.9184 49.2391 84.5654 49.7116 83.8595C50.184 83.1537 50.4203 81.8387 50.4203 79.9146C50.4203 78.5256 50.2495 77.3842 49.908 76.4905C49.5664 75.591 48.9032 75.1413 47.9184 75.1413C47.0133 75.1413 46.3501 75.5683 45.9288 76.4222C45.5133 77.2704 45.3055 78.5227 45.3055 80.1793C45.3055 81.426 45.4393 82.4279 45.7068 83.185C46.1167 84.3406 46.8169 84.9184 47.8074 84.9184Z" fill="#838D97"/>
<path d="M57.5588 73.758C59.1414 73.758 60.2856 74.4098 60.9914 75.7134C61.5379 76.721 61.8112 78.1015 61.8112 79.8548C61.8112 81.517 61.5636 82.8918 61.0683 83.9791C60.351 85.5389 59.1784 86.3187 57.5503 86.3187C56.0816 86.3187 54.9886 85.6812 54.2713 84.406C53.6736 83.3415 53.3748 81.9127 53.3748 80.1195C53.3748 78.7305 53.5541 77.5379 53.9127 76.5417C54.5844 74.6859 55.7998 73.758 57.5588 73.758ZM57.5417 84.9184C58.3387 84.9184 58.9734 84.5654 59.4459 83.8595C59.9184 83.1537 60.1546 81.8387 60.1546 79.9146C60.1546 78.5256 59.9839 77.3842 59.6423 76.4905C59.3007 75.591 58.6376 75.1413 57.6527 75.1413C56.7476 75.1413 56.0844 75.5683 55.6632 76.4222C55.2476 77.2704 55.0398 78.5227 55.0398 80.1793C55.0398 81.426 55.1736 82.4279 55.4412 83.185C55.851 84.3406 56.5512 84.9184 57.5417 84.9184Z" fill="#838D97"/>
<path d="M64.2362 77.3273V76.1489C65.3463 76.0408 66.1205 75.8614 66.5588 75.611C66.9971 75.3548 67.3245 74.7542 67.5408 73.8093H68.7533V85.9857H67.1138V77.3273H64.2362Z" fill="#838D97"/>
<path d="M74.2353 76.9601H76.0199V78.8216H74.2353V76.9601ZM74.2353 84.1243H76.0199V85.9857H74.2353V84.1243Z" fill="#838D97"/>
<path d="M77.7106 85.9857C77.7675 84.9326 77.9839 84.0161 78.3596 83.2362C78.741 82.4563 79.481 81.7476 80.5797 81.11L82.2192 80.1622C82.9535 79.7353 83.4687 79.3709 83.7647 79.0692C84.2315 78.5967 84.4649 78.0559 84.4649 77.4468C84.4649 76.7353 84.2514 76.1717 83.8245 75.7561C83.3975 75.3349 82.8283 75.1243 82.1167 75.1243C81.0636 75.1243 80.3349 75.5227 79.9307 76.3197C79.7144 76.7466 79.5949 77.3387 79.5721 78.0958H78.0095C78.0266 77.0313 78.2229 76.1631 78.5987 75.4914C79.2647 74.3074 80.4402 73.7153 82.1252 73.7153C83.5256 73.7153 84.5474 74.0939 85.1907 74.851C85.8396 75.6081 86.1641 76.4506 86.1641 77.3785C86.1641 78.3576 85.8197 79.1945 85.1309 79.889C84.7324 80.2931 84.018 80.7827 82.9877 81.3576L81.8178 82.0066C81.2599 82.314 80.8216 82.6072 80.5028 82.8861C79.9336 83.3814 79.5749 83.9307 79.4269 84.5341H86.1044V85.9857H77.7106Z" fill="#838D97"/>
<path d="M91.629 73.758C93.2116 73.758 94.3558 74.4098 95.0617 75.7134C95.6081 76.721 95.8814 78.1015 95.8814 79.8548C95.8814 81.517 95.6338 82.8918 95.1385 83.9791C94.4212 85.5389 93.2486 86.3187 91.6205 86.3187C90.1518 86.3187 89.0588 85.6812 88.3415 84.406C87.7438 83.3415 87.445 81.9127 87.445 80.1195C87.445 78.7305 87.6243 77.5379 87.9829 76.5417C88.6546 74.6859 89.87 73.758 91.629 73.758ZM91.6119 84.9184C92.4089 84.9184 93.0436 84.5654 93.5161 83.8595C93.9886 83.1537 94.2248 81.8387 94.2248 79.9146C94.2248 78.5256 94.0541 77.3842 93.7125 76.4905C93.371 75.591 92.7078 75.1413 91.7229 75.1413C90.8178 75.1413 90.1546 75.5683 89.7334 76.4222C89.3178 77.2704 89.11 78.5227 89.11 80.1793C89.11 81.426 89.2438 82.4279 89.5114 83.185C89.9212 84.3406 90.6214 84.9184 91.6119 84.9184Z" fill="#838D97"/>
<path d="M98.3064 77.3273V76.1489C99.4165 76.0408 100.191 75.8614 100.629 75.611C101.067 75.3548 101.395 74.7542 101.611 73.8093H102.824V85.9857H101.184V77.3273H98.3064Z" fill="#838D97"/>
<path d="M108.528 82.869C108.63 83.7457 109.037 84.352 109.749 84.6878C110.113 84.8586 110.534 84.944 111.012 84.944C111.923 84.944 112.598 84.6537 113.036 84.073C113.474 83.4924 113.694 82.8491 113.694 82.1432C113.694 81.2893 113.432 80.629 112.908 80.1622C112.39 79.6954 111.767 79.462 111.038 79.462C110.509 79.462 110.053 79.5645 109.672 79.7694C109.296 79.9743 108.974 80.259 108.707 80.6233L107.375 80.5465L108.305 73.963H114.658V75.4487H109.458L108.937 78.8472C109.222 78.6309 109.492 78.4687 109.749 78.3605C110.204 78.1726 110.731 78.0787 111.328 78.0787C112.45 78.0787 113.4 78.4402 114.18 79.1631C114.96 79.8861 115.35 80.8026 115.35 81.9127C115.35 83.0683 114.991 84.0872 114.274 84.9696C113.563 85.852 112.424 86.2931 110.859 86.2931C109.862 86.2931 108.98 86.0142 108.212 85.4563C107.449 84.8928 107.022 84.0303 106.931 82.869H108.528Z" fill="#838D97"/>
<path d="M48.8916 92.1565C50.4799 92.1565 51.7123 92.5749 52.589 93.4117C53.4656 94.2485 53.9523 95.1992 54.0491 96.2637H52.3926C52.2047 95.4554 51.829 94.8149 51.2654 94.3425C50.7076 93.87 49.922 93.6337 48.9087 93.6337C47.6734 93.6337 46.6744 94.0692 45.9116 94.9402C45.1544 95.8055 44.7759 97.1347 44.7759 98.9278C44.7759 100.397 45.1174 101.589 45.8005 102.506C46.4893 103.416 47.514 103.872 48.8745 103.872C50.1269 103.872 51.0804 103.391 51.7351 102.429C52.0823 101.922 52.3413 101.256 52.5121 100.431H54.1687C54.0207 101.751 53.5311 102.859 52.7 103.752C51.7038 104.828 50.3603 105.366 48.6696 105.366C47.2123 105.366 45.9884 104.925 44.9979 104.043C43.6943 102.876 43.0425 101.074 43.0425 98.6375C43.0425 96.7874 43.532 95.2703 44.5112 94.0863C45.57 92.7998 47.0301 92.1565 48.8916 92.1565Z" fill="#838D97"/>
<path d="M59.847 95.6916C60.496 95.6916 61.125 95.8453 61.7341 96.1527C62.3432 96.4544 62.8072 96.8472 63.126 97.3311C63.4334 97.7922 63.6383 98.3301 63.7408 98.9449C63.8319 99.3662 63.8774 100.038 63.8774 100.96H57.1744C57.2028 101.888 57.422 102.634 57.8319 103.197C58.2417 103.755 58.8764 104.034 59.736 104.034C60.5387 104.034 61.1791 103.769 61.6573 103.24C61.9305 102.933 62.1241 102.577 62.2379 102.173H63.7493C63.7095 102.508 63.5757 102.884 63.348 103.3C63.126 103.71 62.8755 104.045 62.5966 104.307C62.1298 104.763 61.552 105.07 60.8632 105.23C60.4931 105.321 60.0747 105.366 59.6079 105.366C58.4694 105.366 57.5045 104.953 56.7133 104.128C55.922 103.297 55.5264 102.136 55.5264 100.644C55.5264 99.1755 55.9248 97.9829 56.7218 97.0664C57.5188 96.1499 58.5605 95.6916 59.847 95.6916ZM62.2977 99.739C62.2351 99.073 62.0899 98.5407 61.8622 98.1423C61.441 97.4022 60.7379 97.0322 59.7531 97.0322C59.0472 97.0322 58.4552 97.2884 57.977 97.8007C57.4988 98.3073 57.2455 98.9535 57.2171 99.739H62.2977Z" fill="#838D97"/>
<path d="M65.8157 95.8965H67.2759V97.4762C67.3954 97.1688 67.6886 96.796 68.1554 96.3576C68.6222 95.9136 69.1601 95.6916 69.7692 95.6916C69.7977 95.6916 69.8461 95.6944 69.9144 95.7001C69.9827 95.7058 70.0994 95.7172 70.2645 95.7343V97.3567C70.1734 97.3396 70.088 97.3282 70.0083 97.3225C69.9343 97.3168 69.8518 97.314 69.7607 97.314C68.9865 97.314 68.3916 97.5645 67.9761 98.0654C67.5605 98.5607 67.3527 99.1328 67.3527 99.7817V105.042H65.8157V95.8965Z" fill="#838D97"/>
<path d="M71.904 93.3434H73.458V95.8965H74.9182V97.1518H73.458V103.12C73.458 103.439 73.5662 103.653 73.7825 103.761C73.9021 103.823 74.1013 103.855 74.3802 103.855C74.4542 103.855 74.5339 103.855 74.6193 103.855C74.7047 103.849 74.8043 103.841 74.9182 103.829V105.042C74.7417 105.093 74.5567 105.13 74.3632 105.153C74.1753 105.175 73.9704 105.187 73.7484 105.187C73.0311 105.187 72.5444 105.005 72.2882 104.64C72.032 104.27 71.904 103.792 71.904 103.206V97.1518H70.6658V95.8965H71.904V93.3434Z" fill="#838D97"/>
<path d="M76.4637 95.9392H78.0264V105.042H76.4637V95.9392ZM76.4637 92.4981H78.0264V94.24H76.4637V92.4981Z" fill="#838D97"/>
<path d="M80.7417 94.5047C80.7645 93.8671 80.8755 93.4003 81.0747 93.1043C81.4334 92.5806 82.125 92.3187 83.1497 92.3187C83.2465 92.3187 83.3461 92.3216 83.4486 92.3273C83.551 92.333 83.6677 92.3415 83.7986 92.3529V93.7533C83.6393 93.7419 83.5226 93.7362 83.4486 93.7362C83.3802 93.7305 83.3148 93.7277 83.2522 93.7277C82.7854 93.7277 82.5064 93.85 82.4153 94.0948C82.3243 94.3339 82.2787 94.9487 82.2787 95.9392H83.7986V97.1518H82.2616V105.042H80.7417V97.1518H79.4694V95.9392H80.7417V94.5047ZM85.2759 94.24V92.4981H86.8129V94.24H85.2759ZM85.2759 95.9392H86.8129V105.042H85.2759V95.9392Z" fill="#838D97"/>
<path d="M92.9097 95.6916C93.5586 95.6916 94.1876 95.8453 94.7967 96.1527C95.4059 96.4544 95.8698 96.8472 96.1886 97.3311C96.496 97.7922 96.7009 98.3301 96.8034 98.9449C96.8945 99.3662 96.94 100.038 96.94 100.96H90.237C90.2654 101.888 90.4846 102.634 90.8945 103.197C91.3043 103.755 91.9391 104.034 92.7986 104.034C93.6013 104.034 94.2417 103.769 94.7199 103.24C94.9931 102.933 95.1867 102.577 95.3005 102.173H96.8119C96.7721 102.508 96.6383 102.884 96.4106 103.3C96.1886 103.71 95.9381 104.045 95.6592 104.307C95.1924 104.763 94.6146 105.07 93.9258 105.23C93.5558 105.321 93.1374 105.366 92.6706 105.366C91.532 105.366 90.5671 104.953 89.7759 104.128C88.9846 103.297 88.589 102.136 88.589 100.644C88.589 99.1755 88.9875 97.9829 89.7844 97.0664C90.5814 96.1499 91.6231 95.6916 92.9097 95.6916ZM95.3603 99.739C95.2977 99.073 95.1525 98.5407 94.9248 98.1423C94.5036 97.4022 93.8005 97.0322 92.8157 97.0322C92.1098 97.0322 91.5178 97.2884 91.0396 97.8007C90.5615 98.3073 90.3081 98.9535 90.2797 99.739H95.3603Z" fill="#838D97"/>
<path d="M99.8091 100.576C99.8091 101.555 100.017 102.375 100.432 103.035C100.848 103.695 101.514 104.026 102.431 104.026C103.142 104.026 103.726 103.721 104.181 103.112C104.642 102.497 104.873 101.618 104.873 100.473C104.873 99.3178 104.636 98.4639 104.164 97.9117C103.691 97.3538 103.108 97.0749 102.413 97.0749C101.639 97.0749 101.01 97.3709 100.526 97.9629C100.048 98.555 99.8091 99.4259 99.8091 100.576ZM102.123 95.7343C102.823 95.7343 103.41 95.8823 103.882 96.1783C104.155 96.3491 104.466 96.648 104.813 97.0749V92.4554H106.29V105.042H104.907V103.769C104.548 104.333 104.124 104.74 103.635 104.99C103.145 105.241 102.584 105.366 101.952 105.366C100.933 105.366 100.051 104.939 99.3053 104.085C98.5596 103.226 98.1867 102.084 98.1867 100.661C98.1867 99.3292 98.5254 98.1764 99.2028 97.203C99.8859 96.2239 100.859 95.7343 102.123 95.7343Z" fill="#838D97"/>
</svg>
