<svg width="115" height="64" viewBox="0 0 115 64" fill="none" xmlns="http://www.w3.org/2000/svg">
<g clip-path="url(#clip0_864_2929)">
<path d="M81.5315 5.18168L78.8073 3.20247H82.1746L83.2151 0L84.2557 3.20247H87.623L84.8988 5.1817L85.9393 8.38416L83.2151 6.40493L80.4909 8.38416L81.5315 5.18168Z" fill="#838D97"/>
<path d="M82.1746 58.8183L83.2151 55.6158L84.2557 58.8183H87.623L84.8988 60.7975L85.9393 64L83.2151 62.0208L80.4909 64L81.5315 60.7975L78.8073 58.8183H82.1746Z" fill="#838D97"/>
<path d="M69.3112 10.1305L66.587 12.1097L67.6275 8.90728L64.9033 6.92802H68.2706L69.3111 3.72555L70.3517 6.92802H73.719L70.9948 8.90725L72.0354 12.1097L69.3112 10.1305Z" fill="#838D97"/>
<path d="M70.3517 55.0927H73.719L70.9948 57.072L72.0354 60.2744L69.3112 58.2952L66.587 60.2744L67.6275 57.072L64.9034 55.0927H68.2706L69.3112 51.8903L70.3517 55.0927Z" fill="#838D97"/>
<path d="M112.064 31.0104L111.023 27.8079L109.982 31.0104H106.615L109.339 32.9896L108.299 36.1921L111.023 34.2128L113.747 36.1921L112.707 32.9896L115.431 31.0104H112.064Z" fill="#838D97"/>
<path d="M97.1191 10.1305L99.8432 12.1097L98.8027 8.90728L101.527 6.92802H98.1596L97.1191 3.72555L96.0785 6.92802H92.7113L95.4354 8.90725L94.3949 12.1097L97.1191 10.1305Z" fill="#838D97"/>
<path d="M105.614 19.0856L104.573 22.2881L107.297 20.3089L110.022 22.2881L108.981 19.0856L111.705 17.1064H108.338L107.297 13.904L106.257 17.1064H102.89L105.614 19.0856Z" fill="#838D97"/>
<path d="M107.297 41.7119L106.257 44.9143H102.89L105.614 46.8936L104.573 50.096L107.297 48.1168L110.022 50.096L108.981 46.8936L111.705 44.9143H108.338L107.297 41.7119Z" fill="#838D97"/>
<path d="M97.1191 51.8903L96.0785 55.0927H92.7112L95.4354 57.072L94.3949 60.2744L97.1191 58.2952L99.8432 60.2744L98.8027 57.072L101.527 55.0927H98.1596L97.1191 51.8903Z" fill="#838D97"/>
<path d="M9.41992 29.3332V15.9712H12.7285L14.7155 25.0858L16.6842 15.9712H20.0019V29.3332H17.9512V18.8149L15.7728 29.3332H13.64L11.4798 18.8149V29.3332H9.41992Z" fill="white"/>
<path d="M32.0879 29.3332H29.6816L28.7246 26.298H24.3496L23.4473 29.3332H21.0957L25.3613 15.9712H27.7038L32.0879 29.3332ZM28.0137 24.0467L26.5098 19.0884L25.0241 24.0467H28.0137Z" fill="white"/>
<path d="M33.2454 15.9712H37.2832C38.304 15.9712 39.0727 16.0866 39.5892 16.3175C40.1118 16.5424 40.5918 16.9252 41.0293 17.466C41.4668 18.0068 41.8101 18.7086 42.0592 19.5715C42.3084 20.4343 42.4329 21.5068 42.4329 22.7889C42.4329 23.9434 42.3023 24.9491 42.041 25.8058C41.7797 26.6565 41.4486 27.331 41.0475 27.8293C40.6465 28.3275 40.1604 28.7043 39.5892 28.9595C39.0241 29.2086 38.2949 29.3332 37.4017 29.3332H33.2454V15.9712ZM35.4512 18.2316V27.0819H37.11C37.821 27.0819 38.3344 27.015 38.6504 26.8813C38.9724 26.7477 39.2337 26.5471 39.4342 26.2798C39.6408 26.0063 39.811 25.578 39.9447 24.9946C40.0783 24.4113 40.1452 23.6426 40.1452 22.6886C40.1452 21.6982 40.0753 20.9174 39.9355 20.3462C39.8019 19.775 39.5892 19.3254 39.2975 18.9972C39.0119 18.6691 38.6625 18.4534 38.2493 18.3501C37.9394 18.2711 37.3409 18.2316 36.4538 18.2316H35.4512Z" fill="white"/>
<path d="M44.3105 29.3332V15.9712H52.4407V18.2316H46.5163V21.1938H52.0215V23.4451H46.5163V27.0819H52.6413V29.3332H44.3105Z" fill="white"/>
<path d="M58.7116 29.3332V15.9712H60.9173V29.3332H58.7116Z" fill="white"/>
<path d="M63.0683 29.3332V15.9712H65.2194L69.7038 24.8944V15.9712H71.7637V29.3332H69.5397L65.1282 20.6196V29.3332H63.0683Z" fill="white"/>
<path d="M9.45703 47.9999V34.6379H17.5872V36.8983H11.6628V39.8606H17.168V42.1119H11.6628V45.7486H17.7878V47.9999H9.45703Z" fill="white"/>
<path d="M19.638 34.6379H21.8437V41.8749C21.8437 42.999 21.8711 43.7312 21.9258 44.0715C22.023 44.6609 22.2539 45.1166 22.6185 45.4387C22.9891 45.7607 23.4753 45.9218 24.0768 45.9218C24.5872 45.9218 25.0035 45.8093 25.3255 45.5845C25.6476 45.3536 25.8663 45.0376 25.9818 44.6366C26.1033 44.2295 26.1641 43.3606 26.1641 42.0298V34.6379H28.3789V41.6561C28.3789 43.4487 28.2817 44.746 28.0872 45.5481C27.8989 46.3441 27.4674 46.9912 26.793 47.4895C26.1246 47.9816 25.2404 48.2277 24.1406 48.2277C22.9983 48.2277 22.105 48.0242 21.4609 47.6171C20.8229 47.2039 20.3581 46.6266 20.0664 45.8853C19.7808 45.1379 19.638 43.7646 19.638 41.7655V34.6379Z" fill="white"/>
<path d="M30.7122 47.9999V34.6379H35.3698C36.5608 34.6379 37.4114 34.7594 37.9219 35.0025C38.4323 35.2395 38.8516 35.6557 39.1797 36.2512C39.5078 36.8406 39.6719 37.5485 39.6719 38.3749C39.6719 39.42 39.4197 40.2616 38.9154 40.8996C38.4171 41.5376 37.7062 41.9387 36.7825 42.1027C37.2565 42.443 37.6484 42.8167 37.9583 43.2238C38.2682 43.6249 38.6905 44.348 39.2253 45.3931L40.556 47.9999H37.9219L36.3177 45.0923C35.7404 44.0411 35.3485 43.3849 35.1419 43.1236C34.9353 42.8562 34.7166 42.6739 34.4857 42.5767C34.2548 42.4734 33.8841 42.4218 33.3737 42.4218H32.918V47.9999H30.7122ZM32.918 40.2889H34.5586C35.5612 40.2889 36.1992 40.2464 36.4726 40.1613C36.7461 40.0702 36.9679 39.8909 37.138 39.6236C37.3082 39.3562 37.3932 39.0007 37.3932 38.5572C37.3932 38.1318 37.3082 37.7915 37.138 37.5363C36.9679 37.2751 36.737 37.0958 36.4453 36.9986C36.2387 36.9317 35.6402 36.8983 34.6497 36.8983H32.918V40.2889Z" fill="white"/>
<path d="M41.3125 41.4009C41.3125 39.8089 41.5464 38.4994 42.0143 37.4725C42.4883 36.4395 43.105 35.6709 43.8646 35.1665C44.6241 34.6622 45.5447 34.41 46.6263 34.41C48.194 34.41 49.47 35.0086 50.4544 36.2056C51.4449 37.4027 51.9401 39.1071 51.9401 41.3189C51.9401 43.555 51.4175 45.302 50.3724 46.5598C49.4548 47.6718 48.2092 48.2277 46.6354 48.2277C45.0495 48.2277 43.7977 47.6778 42.8802 46.578C41.8351 45.3202 41.3125 43.5945 41.3125 41.4009ZM43.5911 41.3098C43.5911 42.8471 43.8828 44.0016 44.4661 44.7733C45.0495 45.5389 45.7726 45.9218 46.6354 45.9218C47.5043 45.9218 48.2244 45.542 48.7956 44.7824C49.3667 44.0168 49.6523 42.8441 49.6523 41.2642C49.6523 39.7147 49.3728 38.5693 48.8138 37.828C48.2608 37.0867 47.5347 36.716 46.6354 36.716C45.7361 36.716 45.0039 37.0897 44.4388 37.8371C43.8737 38.5845 43.5911 39.7421 43.5911 41.3098Z" fill="white"/>
<path d="M53.6719 47.9999V34.6379H57.2265C58.5512 34.6379 59.4171 34.7017 59.8242 34.8293C60.4744 35.0359 61.0091 35.4764 61.4284 36.1509C61.8537 36.8254 62.0664 37.6943 62.0664 38.7577C62.0664 39.7238 61.8841 40.535 61.5195 41.1913C61.1549 41.8415 60.6992 42.3002 60.1523 42.5676C59.6055 42.8289 58.6636 42.9595 57.3268 42.9595H55.8776V47.9999H53.6719ZM55.8776 36.8983V40.69H57.0989C57.9193 40.69 58.4752 40.6323 58.7669 40.5168C59.0647 40.4014 59.3077 40.1948 59.4961 39.897C59.6844 39.5932 59.7786 39.2225 59.7786 38.785C59.7786 38.3415 59.6814 37.9678 59.487 37.6639C59.2925 37.3601 59.0525 37.1566 58.7669 37.0533C58.4813 36.95 57.8767 36.8983 56.9531 36.8983H55.8776Z" fill="white"/>
<path d="M63.8893 47.9999V34.6379H72.0195V36.8983H66.095V39.8606H71.6002V42.1119H66.095V45.7486H72.22V47.9999H63.8893Z" fill="white"/>
</g>
<defs>
<clipPath id="clip0_864_2929">
<rect width="114.667" height="64" fill="white" transform="translate(0.333008)"/>
</clipPath>
</defs>
</svg>
