<svg width="25" height="24" viewBox="0 0 25 24" fill="none" xmlns="http://www.w3.org/2000/svg">
<path fill-rule="evenodd" clip-rule="evenodd" d="M12.433 0H12.1232L11.8289 0.123374L7.32146 4.58023C7.12784 4.83468 7.19367 5.02745 7.51508 5.02745H9.50937C9.83465 5.02745 10.0902 5.28191 10.0902 5.60191V8.90985C10.0902 9.22985 10.3497 9.48431 10.6711 9.48431H13.951C14.3383 9.48431 14.5977 9.22985 14.5977 8.90985V5.60191C14.5977 5.28191 14.8533 5.02745 15.1747 5.02745H17.0412C17.3626 5.02745 17.4284 4.83468 17.2348 4.58023L12.7312 0.123374L12.433 0ZM19.8765 7.25592C19.7797 7.12869 19.6829 7.08242 19.6093 7.10555C19.5357 7.12869 19.4893 7.22507 19.4893 7.38314V16.4858C19.4893 16.6477 19.5357 16.7595 19.6093 16.7981C19.6829 16.8366 19.7797 16.8058 19.8765 16.6785L24.2523 12.3489C24.5079 12.16 24.5079 11.7745 24.2523 11.52L19.8765 7.25592ZM5.06802 7.0091C5.14934 7.04765 5.19968 7.15946 5.19968 7.32139V16.6129C5.19968 16.7749 5.14934 16.8712 5.06802 16.9021C4.99058 16.9329 4.87828 16.9021 4.74661 16.8057L0.304965 12.3488C0.0493866 12.1599 0.0493866 11.7744 0.304965 11.5199L4.74661 7.12862C4.87828 7.00139 4.99058 6.97054 5.06802 7.0091ZM13.9512 14.3229H10.6712C10.3498 14.3229 10.0904 14.5774 10.0904 14.8974V18.3981C10.0904 18.7798 9.83479 19.0342 9.50951 19.0342H7.64301C7.3216 19.0342 7.19382 19.2231 7.45327 19.4159L11.8291 23.8072C11.9569 23.9345 12.1195 24 12.2783 24C12.4409 24 12.5997 23.9345 12.7314 23.8072L17.1072 19.4159C17.3628 19.2231 17.235 19.0342 16.9136 19.0342H15.1748C14.8534 19.0342 14.5979 18.7798 14.5979 18.3981V14.8974C14.5979 14.5774 14.3384 14.3229 13.9512 14.3229Z" fill="#838D97"/>
</svg>
