<svg width="67" height="87" viewBox="0 0 67 87" fill="none" xmlns="http://www.w3.org/2000/svg">
<path d="M1.25098 19.9168L3.57698 20.0891C5.98913 17.3611 6.93676 9.29184 21.1512 10.8712C20.6343 45.4454 5.47224 49.0923 6.41987 56.1852C6.76446 60.2054 9.95194 62.675 13.3979 62.8186C24.2813 62.4453 23.7931 47.7714 27.1816 10.7851H41.2237C40.4771 23.8222 38.4383 36.8593 38.2085 49.6379C38.3808 58.1379 43.5497 62.675 50.3554 62.7324C61.5547 63.1057 65.0868 50.0399 65.0868 44.469H62.6746C62.4449 49.0636 60.2337 52.3659 55.5243 52.5669C42.6882 52.7392 49.7524 29.9961 49.8385 10.9574L65.0868 11.0435L65.0006 1.30878C1.62311 1.00178 9.66752 -0.240713 1.25098 19.9168Z" fill="white"/>
<path d="M18.5307 73.7324C20.1133 73.7324 21.2575 74.3842 21.9634 75.6878C22.5099 76.6954 22.7831 78.0759 22.7831 79.8292C22.7831 81.4914 22.5355 82.8662 22.0402 83.9535C21.323 85.5132 20.1503 86.2931 18.5222 86.2931C17.0535 86.2931 15.9605 85.6556 15.2433 84.3804C14.6455 83.3159 14.3467 81.8871 14.3467 80.0939C14.3467 78.7049 14.526 77.5123 14.8846 76.5161C15.5564 74.6603 16.7717 73.7324 18.5307 73.7324ZM18.5137 84.8928C19.3106 84.8928 19.9454 84.5398 20.4178 83.8339C20.8903 83.128 21.1266 81.8131 21.1266 79.889C21.1266 78.5 20.9558 77.3586 20.6142 76.4649C20.2727 75.5654 19.6095 75.1157 18.6247 75.1157C17.7195 75.1157 17.0564 75.5427 16.6351 76.3965C16.2195 77.2447 16.0118 78.4971 16.0118 80.1537C16.0118 81.4003 16.1455 82.4022 16.4131 83.1594C16.823 84.315 17.5232 84.8928 18.5137 84.8928Z" fill="#838D97"/>
<path d="M28.2651 73.7324C29.8476 73.7324 30.9918 74.3842 31.6977 75.6878C32.2442 76.6954 32.5175 78.0759 32.5175 79.8292C32.5175 81.4914 32.2698 82.8662 31.7746 83.9535C31.0573 85.5132 29.8846 86.2931 28.2565 86.2931C26.7879 86.2931 25.6949 85.6556 24.9776 84.3804C24.3799 83.3159 24.081 81.8871 24.081 80.0939C24.081 78.7049 24.2603 77.5123 24.619 76.5161C25.2907 74.6603 26.5061 73.7324 28.2651 73.7324ZM28.248 84.8928C29.045 84.8928 29.6797 84.5398 30.1522 83.8339C30.6247 83.128 30.8609 81.8131 30.8609 79.889C30.8609 78.5 30.6901 77.3586 30.3486 76.4649C30.007 75.5654 29.3438 75.1157 28.359 75.1157C27.4539 75.1157 26.7907 75.5427 26.3694 76.3965C25.9539 77.2447 25.7461 78.4971 25.7461 80.1537C25.7461 81.4003 25.8799 82.4022 26.1474 83.1594C26.5573 84.315 27.2575 84.8928 28.248 84.8928Z" fill="#838D97"/>
<path d="M37.8116 86.2931C36.3657 86.2931 35.3154 85.8975 34.6607 85.1062C34.0118 84.3093 33.6873 83.3415 33.6873 82.203H35.2926C35.3609 82.9943 35.5089 83.5692 35.7366 83.9279C36.1351 84.5711 36.8552 84.8928 37.897 84.8928C38.7053 84.8928 39.3543 84.6764 39.8438 84.2438C40.3334 83.8112 40.5782 83.2533 40.5782 82.5702C40.5782 81.7277 40.3192 81.1385 39.8011 80.8026C39.2888 80.4668 38.5744 80.2988 37.6579 80.2988C37.5554 80.2988 37.4501 80.3017 37.3419 80.3074C37.2395 80.3074 37.1342 80.3102 37.026 80.3159V78.9582C37.1854 78.9753 37.3192 78.9867 37.4273 78.9924C37.5355 78.9981 37.6522 79.0009 37.7774 79.0009C38.3524 79.0009 38.8249 78.9098 39.1949 78.7277C39.8438 78.4089 40.1683 77.8396 40.1683 77.0199C40.1683 76.4108 39.952 75.9411 39.5194 75.611C39.0867 75.2808 38.5829 75.1157 38.008 75.1157C36.9833 75.1157 36.2746 75.4573 35.8818 76.1404C35.6655 76.5161 35.5431 77.0512 35.5146 77.7457H33.9947C33.9947 76.8349 34.1768 76.0607 34.5412 75.4231C35.1674 74.2846 36.2689 73.7153 37.8457 73.7153C39.0924 73.7153 40.0573 73.9943 40.7404 74.5521C41.4235 75.1043 41.7651 75.907 41.7651 76.9601C41.7651 77.7115 41.563 78.3206 41.1588 78.7874C40.9083 79.0778 40.5839 79.3055 40.1854 79.4706C40.8287 79.647 41.3296 79.9886 41.6882 80.4952C42.0526 80.9962 42.2347 81.611 42.2347 82.3396C42.2347 83.5066 41.8505 84.4573 41.082 85.1916C40.3135 85.926 39.2233 86.2931 37.8116 86.2931Z" fill="#838D97"/>
<path d="M45.1636 82.8434C45.266 83.7201 45.6731 84.3263 46.3846 84.6622C46.749 84.833 47.1702 84.9184 47.6484 84.9184C48.5592 84.9184 49.2338 84.628 49.6721 84.0474C50.1104 83.4668 50.3296 82.8235 50.3296 82.1176C50.3296 81.2637 50.0677 80.6034 49.544 80.1366C49.026 79.6698 48.4027 79.4364 47.674 79.4364C47.1446 79.4364 46.6892 79.5389 46.3078 79.7438C45.9321 79.9487 45.6104 80.2334 45.3429 80.5977L44.0108 80.5208L44.9416 73.9373H51.2945V75.4231H46.0943L45.5734 78.8216C45.8581 78.6053 46.1285 78.443 46.3846 78.3349C46.84 78.147 47.3666 78.0531 47.9643 78.0531C49.0858 78.0531 50.0364 78.4146 50.8163 79.1375C51.5962 79.8605 51.9861 80.777 51.9861 81.8871C51.9861 83.0427 51.6275 84.0616 50.9102 84.944C50.1987 85.8263 49.0602 86.2675 47.4947 86.2675C46.4985 86.2675 45.6161 85.9886 44.8476 85.4307C44.0848 84.8671 43.6579 84.0047 43.5668 82.8434H45.1636Z" fill="#838D97"/>
</svg>
