<svg width="39" height="51" viewBox="0 0 39 51" fill="none" xmlns="http://www.w3.org/2000/svg">
<path opacity="0.4" d="M29.0674 20.7596L28.7183 20.4192L28.3693 20.7596L18.6775 30.2102L17.009 28.5836C15.261 26.879 15.2611 24.121 17.0089 22.4166L29.3909 10.3432L33.9481 14.7867C40.0173 20.7051 40.0173 30.2951 33.9481 36.2135L19.5 50.3016L5.05207 36.2133L4.70299 36.5713L5.05206 36.2133C-1.01735 30.2951 -1.01736 20.7051 5.05207 14.7867L4.75262 14.4796L5.05207 14.7867L19.4896 0.708323C22.3802 3.87868 22.2673 8.73205 19.1509 11.7709L11.1151 19.6065L11.1151 19.6065C7.779 22.86 7.77898 28.1402 11.1151 31.3935L11.1151 31.3935L19.1509 39.2291L19.5 39.5695L19.849 39.2291L29.0674 30.2403L29.0674 30.2403C31.7506 27.6237 31.7506 23.3762 29.0674 20.7596Z" stroke="#838D97"/>
</svg>
