<svg width="33" height="32" viewBox="0 0 33 32" fill="none" xmlns="http://www.w3.org/2000/svg">
<path fill-rule="evenodd" clip-rule="evenodd" d="M19.7561 10.25H10.3655L9.48541 5.85281C9.41526 5.50229 9.10747 5.25 8.75 5.25H4.75C4.33579 5.25 4 5.58579 4 6C4 6.41421 4.33579 6.75 4.75 6.75H8.13524L9.00836 11.1124C9.01197 11.1364 9.01672 11.16 9.02255 11.1833L10.6944 19.5361L10.6945 19.537C10.8204 20.1697 11.1647 20.738 11.6672 21.1425C12.168 21.5456 12.7941 21.7605 13.4366 21.75H23.1434C23.7859 21.7605 24.412 21.5456 24.9128 21.1425C25.4155 20.7378 25.7599 20.1692 25.8856 19.5361L25.8857 19.5361L25.8867 19.5305L26.8375 14.5447C26.3397 14.7738 25.7978 14.9234 25.228 14.9774L24.4144 19.2439L24.4139 19.2463C24.3563 19.5331 24.2 19.7906 23.9722 19.9741C23.7436 20.158 23.4577 20.2558 23.1644 20.2501L23.15 20.25H13.43L13.4156 20.2501C13.1223 20.2558 12.8364 20.158 12.6078 19.9741C12.3793 19.7901 12.2228 19.5316 12.1656 19.2439L12.1654 19.2428L10.6657 11.75H20.0648C19.889 11.2795 19.782 10.7754 19.7561 10.25ZM12.75 24C11.6454 24 10.75 24.8954 10.75 26C10.75 27.1046 11.6454 28 12.75 28C13.8546 28 14.75 27.1046 14.75 26C14.75 24.8954 13.8546 24 12.75 24ZM23.75 24C22.6454 24 21.75 24.8954 21.75 26C21.75 27.1046 22.6454 28 23.75 28C24.8546 28 25.75 27.1046 25.75 26C25.75 24.8954 24.8546 24 23.75 24Z" fill="#F24942"/>
<circle cx="24.75" cy="10" r="4.5" stroke="#F24942"/>
<path d="M24.2908 11.5C24.2908 11.6243 24.3915 11.725 24.5158 11.725H24.9782C25.1025 11.725 25.2032 11.6243 25.2032 11.5V10.4349H26.25C26.3743 10.4349 26.475 10.3342 26.475 10.2099V9.75963C26.475 9.63537 26.3743 9.53463 26.25 9.53463H25.2032V8.5C25.2032 8.37574 25.1025 8.275 24.9782 8.275H24.5158C24.3915 8.275 24.2908 8.37574 24.2908 8.5V9.53463H23.25C23.1257 9.53463 23.025 9.63537 23.025 9.75963V10.2099C23.025 10.3342 23.1257 10.4349 23.25 10.4349H24.2908V11.5Z" fill="#F24942" stroke="#F24942" stroke-width="0.45" stroke-linejoin="round"/>
</svg>
