<svg width="1874" height="508" viewBox="0 0 1874 508" fill="none" xmlns="http://www.w3.org/2000/svg">
<path d="M177.468 171.367V248.152H292.9C280.188 283.747 249.677 310.191 201.368 310.191C154.076 310.191 96.1063 274.594 96.1063 195.777C96.1063 121.026 150.009 84.4139 199.333 84.4139C242.049 84.4139 269.001 108.821 282.22 135.265H390.024C369.683 62.5486 293.918 0 201.878 0C88.9878 0 0 82.3792 0 195.777C0 305.105 84.4113 394.603 200.351 394.603C306.63 394.603 401.211 317.31 401.211 191.2C401.211 183.572 401.211 177.978 400.704 171.367H177.468V171.367ZM711.91 103.227H627.499V258.323C627.499 303.07 603.599 315.785 579.19 315.785C533.932 315.785 533.932 278.664 533.932 259.34V103.227H449.521V272.052C449.521 311.209 452.062 331.039 474.945 359.008C499.862 390.533 540.543 394.603 557.832 394.603C579.189 394.603 613.769 391.551 631.058 355.449H632.075V385.45H711.91V103.227V103.227ZM874.632 9.15284H790.22V103.227H748.522V174.419H790.22V385.45H874.632V174.419H915.313V103.227H874.632V9.15284ZM1244.32 103.227H1159.91V130.179H1158.89C1143.12 105.772 1113.12 94.074 1081.09 94.074C1007.86 94.074 938.705 147.467 938.705 243.576C938.705 334.598 1004.3 390.026 1081.09 390.026C1124.82 390.026 1149.23 367.144 1158.38 350.873H1159.4V359.515C1159.4 428.672 1115.16 436.808 1095.84 436.808C1090.24 436.808 1053.12 438.336 1042.44 408.842H944.809C952.944 451.048 992.098 508 1087.7 508C1190.92 508 1244.32 449.52 1244.32 347.31V103.227V103.227ZM1023.12 243.069C1023.12 212.048 1043.97 172.894 1091.77 172.894C1138.55 172.894 1161.43 209.506 1161.43 242.559C1161.43 269 1144.14 311.209 1092.28 311.209C1041.93 311.209 1023.12 269 1023.12 243.069V243.069ZM1601.8 103.227H1517.39V134.755H1516.37C1505.69 117.974 1480.77 94.074 1433.99 94.074C1358.73 94.074 1292.12 151.537 1292.12 244.084C1292.12 324.938 1344.49 394.603 1433.99 394.603C1467.55 394.603 1501.11 381.891 1516.37 354.432H1517.39V385.45H1601.8V103.227V103.227ZM1376.53 245.611C1376.53 213.575 1397.89 172.894 1446.2 172.894C1493.99 172.894 1517.39 210.523 1517.39 244.593C1517.39 272.052 1499.59 315.785 1446.7 315.785C1395.85 315.785 1376.53 272.052 1376.53 245.611ZM1870.8 183.065C1868.76 109.838 1800.12 94.074 1763.51 94.074C1705.03 94.074 1654.17 126.112 1654.17 184.082C1654.17 222.728 1681.63 248.152 1718.25 260.865C1773.17 280.188 1788.93 284.257 1788.93 305.615C1788.93 319.344 1774.18 326.97 1759.94 326.97C1755.88 326.97 1731.98 327.48 1727.91 301.546H1644C1651.13 376.297 1715.7 394.603 1758.93 394.603C1821.47 394.603 1873.34 364.602 1873.34 302.563C1873.34 241.542 1826.56 224.76 1778.76 211.031C1756.38 204.422 1738.59 196.284 1738.59 180.52C1738.59 172.894 1744.18 161.707 1761.98 161.707C1786.39 161.707 1787.91 176.961 1787.91 183.065H1870.8V183.065Z" fill="#241215"/>
</svg>
