<svg width="14" height="14" viewBox="0 0 14 14" fill="none" xmlns="http://www.w3.org/2000/svg">
<rect x="1" y="1" width="12" height="12" rx="6" stroke="#F24942"/>
<path d="M6.924 8.952C6.66657 8.952 6.45243 8.75404 6.43226 8.4974L6.07243 3.92116C6.03338 3.42454 6.42585 3 6.924 3C7.42215 3 7.81462 3.42454 7.77557 3.92116L7.41574 8.4974C7.39557 8.75404 7.18143 8.952 6.924 8.952ZM6.924 11.46C6.46339 11.46 6.084 11.0866 6.084 10.626C6.084 10.1654 6.46339 9.792 6.924 9.792C7.38461 9.792 7.764 10.1654 7.764 10.626C7.764 11.0866 7.38461 11.46 6.924 11.46Z" fill="#F24942"/>
</svg>
