<svg width="166" height="40" viewBox="0 0 166 40" fill="none" xmlns="http://www.w3.org/2000/svg">
<path fill-rule="evenodd" clip-rule="evenodd" d="M12.6904 22.6992L14.2273 24.242L21.8758 16.5628C23.7663 18.4611 23.7663 21.5388 21.8758 23.4371L14.8538 30.4871L8.73268 24.3416C6.34472 21.9439 6.34472 18.0563 8.73268 15.6584L14.8538 9.51283C17.4702 6.8859 17.4703 2.62693 14.8537 0L3.58244 11.3166C-1.19415 16.1124 -1.19415 23.8878 3.58244 28.6834L14.8538 40L26.1254 28.6835C30.9018 23.8878 30.9018 16.1124 26.1254 11.3166L22.3881 7.56456L12.6904 17.3009C11.2057 18.7916 11.2057 21.2084 12.6904 22.6992Z" fill="#838D97"/>
<path d="M48.0749 18.1195V23.1102H55.5474C54.7245 25.4237 52.7493 27.1424 49.622 27.1424C46.5606 27.1424 42.8079 24.8288 42.8079 19.706C42.8079 14.8475 46.2973 12.4679 49.4903 12.4679C52.2555 12.4679 54.0002 14.0543 54.856 15.773H61.8347C60.518 11.0468 55.6132 6.98145 49.655 6.98145C42.3471 6.98145 36.5864 12.3357 36.5864 19.706C36.5864 26.8118 42.0508 32.6287 49.5562 32.6287C56.4362 32.6287 62.5589 27.6051 62.5589 19.4085C62.5589 18.9127 62.5589 18.5492 62.5261 18.1195H48.0749ZM82.6721 13.6907H77.2077V23.7712C77.2077 26.6796 75.6606 27.506 74.0804 27.506C71.1506 27.506 71.1506 25.0932 71.1506 23.8373V13.6907H65.6862V24.6635C65.6862 27.2085 65.8508 28.4974 67.3321 30.3153C68.9451 32.3643 71.5786 32.6287 72.6978 32.6287C74.0804 32.6287 76.3189 32.4304 77.4381 30.0839H77.504V32.0338H82.6721V13.6907ZM93.2059 7.57634H87.7415V13.6907H85.0422V18.3179H87.7415V32.0338H93.2059V18.3179H95.8394V13.6907H93.2059V7.57634ZM117.138 13.6907H111.673V15.4424H111.607C110.587 13.8561 108.645 13.0958 106.571 13.0958C101.831 13.0958 97.3537 16.5661 97.3537 22.8127C97.3537 28.7287 101.6 32.3313 106.571 32.3313C109.402 32.3313 110.982 30.8441 111.575 29.7865H111.64V30.3482C111.64 34.8431 108.776 35.3719 107.526 35.3719C107.163 35.3719 104.76 35.4712 104.069 33.5542H97.7488C98.2755 36.2974 100.81 39.999 106.999 39.999C113.681 39.999 117.138 36.1981 117.138 29.555V13.6907ZM102.818 22.7797C102.818 20.7635 104.168 18.2188 107.262 18.2188C110.291 18.2188 111.772 20.5983 111.772 22.7466C111.772 24.4652 110.653 27.2085 107.295 27.2085C104.036 27.2085 102.818 24.4652 102.818 22.7797ZM140.279 13.6907H134.815V15.7399H134.749C134.058 14.6492 132.445 13.0958 129.416 13.0958C124.544 13.0958 120.232 16.8306 120.232 22.8457C120.232 28.1009 123.623 32.6287 129.416 32.6287C131.589 32.6287 133.761 31.8025 134.749 30.0178H134.815V32.0338H140.279V13.6907ZM125.696 22.945C125.696 20.8628 127.079 18.2188 130.206 18.2188C133.301 18.2188 134.815 20.6645 134.815 22.8788C134.815 24.6635 133.663 27.506 130.239 27.506C126.947 27.506 125.696 24.6636 125.696 22.945ZM157.693 18.8798C157.561 14.1204 153.117 13.0958 150.747 13.0958C146.962 13.0958 143.67 15.1781 143.67 18.9459C143.67 21.4577 145.447 23.1102 147.818 23.9364C151.373 25.1923 152.393 25.4568 152.393 26.8449C152.393 27.7373 151.439 28.233 150.517 28.233C150.254 28.233 148.706 28.2661 148.443 26.5805H143.011C143.472 31.4389 147.653 32.6287 150.451 32.6287C154.5 32.6287 157.858 30.6788 157.858 26.6466C157.858 22.6805 154.829 21.5898 151.735 20.6974C150.286 20.2679 149.134 19.739 149.134 18.7144C149.134 18.2187 149.496 17.4916 150.648 17.4916C152.229 17.4916 152.327 18.4831 152.327 18.8798H157.693Z" fill="#838D97"/>
</svg>
