<svg width="203" height="48" viewBox="0 0 203 48" fill="none" xmlns="http://www.w3.org/2000/svg">
<path fill-rule="evenodd" clip-rule="evenodd" d="M15.2897 27.2391L17.1413 29.0904L26.3563 19.8754C28.6341 22.1534 28.6341 25.8466 26.3563 28.1246L17.8962 36.5846L10.5213 29.2099C7.64424 26.3326 7.64424 21.6676 10.5213 18.7901L17.8962 11.4154C21.0485 8.26309 21.0485 3.15232 17.896 0L4.31619 13.58C-1.43873 19.3349 -1.43873 28.6653 4.31619 34.42L17.8962 48L31.4763 34.4202C37.2311 28.6653 37.2311 19.3349 31.4763 13.58L26.9736 9.07747L15.2897 20.7611C13.5008 22.5499 13.5008 25.4501 15.2897 27.2391Z" fill="#F24942"/>
<path d="M57.9216 21.7436V27.7324H66.9246C65.9331 30.5086 63.5535 32.571 59.7856 32.571C56.0971 32.571 51.5758 29.7947 51.5758 23.6474C51.5758 17.8172 55.7799 14.9617 59.6269 14.9617C62.9585 14.9617 65.0606 16.8653 66.0916 18.9278H74.4997C72.9132 13.2563 67.004 8.3779 59.8254 8.3779C51.0206 8.3779 44.0801 14.803 44.0801 23.6474C44.0801 32.1743 50.6637 39.1547 59.7063 39.1547C67.9954 39.1547 75.3723 33.1262 75.3723 23.2904C75.3723 22.6954 75.3723 22.2592 75.3327 21.7436H57.9216ZM99.605 16.429H93.0214V28.5256C93.0214 32.0157 91.1573 33.0073 89.2535 33.0073C85.7237 33.0073 85.7237 30.1121 85.7237 28.605V16.429H79.1401V29.5964C79.1401 32.6504 79.3384 34.1971 81.1231 36.3785C83.0664 38.8373 86.2393 39.1547 87.5877 39.1547C89.2535 39.1547 91.9506 38.9166 93.299 36.1009H93.3783V38.4408H99.605V16.429ZM112.296 9.09177H105.713V16.429H102.46V21.9816H105.713V38.4408H112.296V21.9816H115.469V16.429H112.296V9.09177ZM141.13 16.429H134.546V18.5311H134.467C133.237 16.6275 130.897 15.7151 128.399 15.7151C122.688 15.7151 117.294 19.8795 117.294 27.3754C117.294 34.4746 122.41 38.7977 128.399 38.7977C131.81 38.7977 133.713 37.013 134.427 35.744H134.507V36.418C134.507 41.8119 131.056 42.4464 129.549 42.4464C129.113 42.4464 126.217 42.5656 125.385 40.2652H117.77C118.404 43.557 121.458 47.999 128.914 47.999C136.965 47.999 141.13 43.4379 141.13 35.4661V16.429ZM123.877 27.3359C123.877 24.9164 125.504 21.8627 129.232 21.8627C132.88 21.8627 134.665 24.7182 134.665 27.2961C134.665 29.3584 133.317 32.6504 129.271 32.6504C125.345 32.6504 123.877 29.3584 123.877 27.3359ZM169.011 16.429H162.428V18.888H162.348C161.515 17.5792 159.572 15.7151 155.923 15.7151C150.053 15.7151 144.858 20.1969 144.858 27.415C144.858 33.7212 148.943 39.1547 155.923 39.1547C158.541 39.1547 161.158 38.1632 162.348 36.0215H162.428V38.4408H169.011V16.429ZM151.442 27.5341C151.442 25.0356 153.107 21.8627 156.875 21.8627C160.603 21.8627 162.428 24.7975 162.428 27.4548C162.428 29.5964 161.039 33.0073 156.915 33.0073C152.949 33.0073 151.442 29.5964 151.442 27.5341ZM189.992 22.6559C189.833 16.9447 184.479 15.7151 181.623 15.7151C177.062 15.7151 173.096 18.2139 173.096 22.7352C173.096 25.7494 175.238 27.7324 178.094 28.7238C182.377 30.2309 183.606 30.5483 183.606 32.2141C183.606 33.2849 182.456 33.8797 181.346 33.8797C181.028 33.8797 179.164 33.9195 178.847 31.8967H172.303C172.858 37.7269 177.895 39.1547 181.266 39.1547C186.145 39.1547 190.19 36.8148 190.19 31.9761C190.19 27.2168 186.541 25.9079 182.813 24.8371C181.068 24.3217 179.68 23.6869 179.68 22.4574C179.68 21.8627 180.116 20.9901 181.504 20.9901C183.408 20.9901 183.527 22.1798 183.527 22.6559H189.992Z" fill="#FEFEFE"/>
</svg>
