<svg width="133" height="157" viewBox="0 0 133 157" fill="none" xmlns="http://www.w3.org/2000/svg">
<g opacity="0.3" filter="url(#filter0_d_1422_2474)">
<path fill-rule="evenodd" clip-rule="evenodd" d="M72.167 9.83325H26.5003H21.167C16.7487 9.83325 13.167 13.415 13.167 17.8332V23.1666V129.833V135.167C13.167 139.585 16.7487 143.167 21.167 143.167H26.5003H106.5H111.834C116.252 143.167 119.834 139.585 119.834 135.167V129.833L119.834 57.4999H81.167C76.1964 57.4999 72.167 53.4705 72.167 48.4999V9.83325ZM118.834 55.4999L74.167 10.8333V48.4999C74.167 52.3659 77.301 55.4999 81.167 55.4999H118.834Z" fill="url(#paint0_radial_1422_2474)" fill-opacity="0.76" shape-rendering="crispEdges"/>
</g>
<defs>
<filter id="filter0_d_1422_2474" x="0.166992" y="0.833252" width="132.667" height="159.333" filterUnits="userSpaceOnUse" color-interpolation-filters="sRGB">
<feFlood flood-opacity="0" result="BackgroundImageFix"/>
<feColorMatrix in="SourceAlpha" type="matrix" values="0 0 0 0 0 0 0 0 0 0 0 0 0 0 0 0 0 0 127 0" result="hardAlpha"/>
<feOffset dy="4"/>
<feGaussianBlur stdDeviation="6.5"/>
<feComposite in2="hardAlpha" operator="out"/>
<feColorMatrix type="matrix" values="0 0 0 0 0 0 0 0 0 0 0 0 0 0 0 0 0 0 0.8 0"/>
<feBlend mode="normal" in2="BackgroundImageFix" result="effect1_dropShadow_1422_2474"/>
<feBlend mode="normal" in="SourceGraphic" in2="effect1_dropShadow_1422_2474" result="shape"/>
</filter>
<radialGradient id="paint0_radial_1422_2474" cx="0" cy="0" r="1" gradientUnits="userSpaceOnUse" gradientTransform="translate(28.5 14.5) rotate(54.5468) scale(157.748 236.963)">
<stop stop-color="white"/>
<stop offset="1" stop-color="white" stop-opacity="0.16"/>
</radialGradient>
</defs>
</svg>
