<svg width="89" height="88" viewBox="0 0 89 88" fill="none" xmlns="http://www.w3.org/2000/svg">
<path fill-rule="evenodd" clip-rule="evenodd" d="M73.9969 37.3557V39.4368C73.9969 39.7814 73.7176 40.0607 73.3731 40.0607H62.0394L62.1208 39.9C62.2818 39.5819 62.1781 39.1935 61.8798 38.9981L60.4532 38.0639C60.211 37.9052 60.0914 37.6137 60.1525 37.3306L60.522 35.6185C60.5978 35.2673 60.3953 34.9157 60.0535 34.805L58.4584 34.2881C58.18 34.1979 57.9871 33.9441 57.9748 33.6517L57.9014 31.9132C57.8861 31.5505 57.596 31.2596 57.2333 31.2435L55.5814 31.1697C55.2856 31.1565 55.0301 30.9585 54.9433 30.6754L54.4406 29.0339C54.3332 28.6831 53.9731 28.4748 53.6155 28.5564L52.015 28.9218C51.7232 28.9884 51.4215 28.8622 51.264 28.6078L50.3755 27.1725C50.1809 26.8582 49.7755 26.7493 49.4497 26.9239L48 27.7006C47.7347 27.8428 47.4082 27.7994 47.1892 27.5929L45.9802 26.4529C45.7106 26.1986 45.2894 26.1986 45.0198 26.4529L43.8108 27.5929C43.5918 27.7994 43.2653 27.8428 43 27.7006L41.5503 26.9239C41.2245 26.7493 40.8191 26.8582 40.6245 27.1725L39.736 28.6078C39.5785 28.8622 39.2768 28.9884 38.985 28.9218L37.3845 28.5564C37.0269 28.4748 36.6668 28.6831 36.5594 29.0339L36.0567 30.6754C35.9699 30.9585 35.7144 31.1565 35.4186 31.1697L33.7667 31.2435C33.404 31.2596 33.1139 31.5505 33.0986 31.9132L33.0252 33.6517C33.0129 33.9441 32.82 34.1979 32.5416 34.2881L30.9465 34.805C30.6047 34.9157 30.4022 35.2673 30.478 35.6185L30.8475 37.3306C30.9086 37.6137 30.789 37.9052 30.5468 38.0639L29.1202 38.9981C28.8219 39.1935 28.7181 39.5819 28.8792 39.9L28.9606 40.0607H15.9763C15.6317 40.0607 15.3524 39.7814 15.3524 39.4368V37.3557C15.3524 37.1902 15.2867 37.0315 15.1697 36.9145L14.9112 36.6561C14.7942 36.5391 14.7285 36.3804 14.7285 36.215V30.493C14.7285 30.3276 14.7942 30.1689 14.9112 30.0519L15.3002 29.6629C15.3336 29.6295 15.3524 29.5842 15.3524 29.5369C15.3524 27.7562 15.891 26.0172 16.8975 24.5482L17.0333 24.35C19.7495 20.3858 21.9651 16.101 23.6296 11.593L24.8665 8.24286L23.9852 7.5649C23.2537 7.0022 22.7869 6.1625 22.695 5.24418C22.5146 3.44031 23.8027 1.82052 25.6009 1.58999L34.3626 0.466687C34.4549 0.45485 34.5366 0.526776 34.5366 0.619857V12.766L34.6821 13.366C35.539 16.9007 38.079 19.6108 41.2654 20.8172L41.2655 18.4209C40.7771 18.3714 40.4583 17.8633 40.6459 17.3942C40.7982 17.0134 41.167 16.7637 41.5771 16.7637H41.786C40.5108 15.8586 39.6786 14.3701 39.6786 12.6872C39.6786 11.012 40.5032 9.52942 41.7686 8.62314H39.5039C39.2686 8.62314 39.0101 8.46056 38.9637 8.16386L38.8833 7.65036C38.7415 6.74466 38.8759 5.82196 39.269 4.98484C39.5411 4.40529 40.1461 4.05916 40.782 4.05916L48.6229 4.05916C49.3254 4.05916 49.9871 4.47042 50.2303 5.13578C50.5076 5.89449 50.5879 6.7034 50.4637 7.49723L50.3604 8.15718C50.3134 8.45769 50.0513 8.62314 49.8117 8.62314H47.5796C48.845 9.52942 49.6696 11.012 49.6696 12.6872C49.6696 14.3701 48.8374 15.8586 47.5622 16.7637H47.7715C48.1816 16.7637 48.5504 17.0134 48.7027 17.3942C48.8904 17.8633 48.5715 18.3715 48.0831 18.4209L48.0831 20.8176C51.2699 19.6113 53.8103 16.901 54.6672 13.366L54.8127 12.766V0.619857C54.8127 0.526776 54.8944 0.45485 54.9867 0.466687L63.7485 1.58999C65.5466 1.82052 66.8347 3.44031 66.6543 5.24418C66.5625 6.1625 66.0957 7.0022 65.3641 7.5649L64.4828 8.24286L65.7198 11.593C67.3842 16.101 69.5998 20.3858 72.316 24.35L72.4518 24.5482C73.4583 26.0172 73.9969 27.7562 73.9969 29.5369C73.9969 29.5842 74.0157 29.6295 74.0492 29.6629L74.4381 30.0519C74.5551 30.1689 74.6208 30.3276 74.6208 30.493V36.215C74.6208 36.3804 74.5551 36.5391 74.4381 36.6561L74.1797 36.9145C74.0627 37.0315 73.9969 37.1902 73.9969 37.3557ZM73 40.691C73.2761 40.691 73.5 40.9149 73.5 41.191V69.9798C73.5 70.2559 73.2761 70.4798 73 70.4798C72.7239 70.4798 72.5 70.2559 72.5 69.9798V41.191C72.5 40.9149 72.7239 40.691 73 40.691ZM17 41.191C17 40.9149 16.7761 40.691 16.5 40.691C16.2239 40.691 16 40.9149 16 41.191L16 69.9798C16 70.2559 16.2239 70.4798 16.5 70.4798C16.7761 70.4798 17 70.2559 17 69.9798L17 41.191ZM45.3085 29.3097C45.4996 29.1344 45.7931 29.1344 45.9842 29.3097L47.1239 30.3545C47.2789 30.4967 47.5063 30.5266 47.6928 30.4294L49.064 29.7152C49.2941 29.5953 49.5775 29.6713 49.7168 29.8901L50.5472 31.1943C50.6601 31.3717 50.872 31.4594 51.0773 31.4138L52.5867 31.0788C52.8399 31.0226 53.094 31.1693 53.1719 31.4167L53.6365 32.8914C53.6997 33.092 53.8816 33.2316 54.0917 33.2407L55.6364 33.3077C55.8955 33.319 56.103 33.5265 56.1142 33.7856L56.1813 35.3303C56.1904 35.5404 56.33 35.7223 56.5306 35.7855L58.0053 36.25C58.2526 36.328 58.3994 36.5821 58.3432 36.8353L58.0081 38.3447C57.9626 38.55 58.0503 38.7618 58.2277 38.8748L59.5319 39.7052C59.7507 39.8445 59.8266 40.1279 59.7068 40.3579L58.9926 41.7292C58.8954 41.9157 58.9253 42.1431 59.0675 42.2981L60.1123 43.4377C60.2876 43.6289 60.2876 43.9224 60.1123 44.1135L59.0675 45.2532C58.9253 45.4082 58.8954 45.6356 58.9926 45.8221L59.7068 47.1933C59.8266 47.4233 59.7507 47.7068 59.5319 47.8461L58.2277 48.6765C58.0503 48.7894 57.9626 49.0013 58.0081 49.2066L58.3432 50.716C58.3994 50.9692 58.2526 51.2233 58.0053 51.3012L56.5306 51.7658C56.4587 51.7884 56.3947 51.8263 56.3416 51.8753L65.4664 67.6799C65.5619 67.8453 65.5549 68.0506 65.4482 68.209C65.3416 68.3674 65.1541 68.4513 64.9649 68.4252L58.5776 67.5417L56.149 73.515C56.0771 73.6919 55.9107 73.8124 55.7202 73.8255C55.5296 73.8386 55.3483 73.7421 55.2528 73.5767L46.9287 59.1589L38.6046 73.5767C38.5091 73.7421 38.3278 73.8386 38.1372 73.8255C37.9467 73.8124 37.7803 73.6919 37.7084 73.515L35.2798 67.5417L28.8925 68.4252C28.7033 68.4513 28.5158 68.3674 28.4092 68.209C28.3025 68.0506 28.2955 67.8453 28.391 67.6799L36.1364 54.2644L35.6563 54.2435C35.3972 54.2323 35.1897 54.0248 35.1785 53.7657L35.1114 52.221C35.1023 52.0109 34.9627 51.829 34.7621 51.7658L33.2874 51.3012C33.0401 51.2233 32.8933 50.9692 32.9495 50.716L33.2846 49.2066C33.3301 49.0013 33.2424 48.7894 33.065 48.6765L31.7608 47.8461C31.542 47.7068 31.4661 47.4233 31.5859 47.1933L32.3002 45.8221C32.3973 45.6356 32.3674 45.4082 32.2253 45.2532L31.1804 44.1135C31.0052 43.9224 31.0052 43.6289 31.1804 43.4377L32.2253 42.2981C32.3674 42.1431 32.3973 41.9157 32.3002 41.7292L31.5859 40.3579C31.4661 40.1279 31.542 39.8445 31.7608 39.7052L33.065 38.8748C33.2424 38.7618 33.3301 38.55 33.2846 38.3447L32.9495 36.8353C32.8933 36.5821 33.0401 36.328 33.2874 36.25L34.7621 35.7855C34.9627 35.7223 35.1023 35.5404 35.1114 35.3303L35.1785 33.7856C35.1897 33.5265 35.3972 33.319 35.6563 33.3077L37.201 33.2407C37.4111 33.2316 37.593 33.092 37.6562 32.8914L38.1208 31.4167C38.1987 31.1693 38.4528 31.0226 38.706 31.0788L40.2154 31.4138C40.4207 31.4594 40.6326 31.3717 40.7455 31.1943L41.5759 29.8901C41.7152 29.6713 41.9987 29.5953 42.2287 29.7152L43.5999 30.4294C43.7864 30.5266 44.0138 30.4967 44.1688 30.3545L45.3085 29.3097ZM56.1142 53.7657L56.1257 53.5013L64.0892 67.2945L58.3294 66.4978C58.1028 66.4665 57.8838 66.5929 57.7977 66.8048L55.6077 72.1914L47.506 58.1589L48.0095 57.2868L49.064 57.8361C49.2941 57.9559 49.5775 57.88 49.7168 57.6612L50.5472 56.357C50.6601 56.1796 50.872 56.0919 51.0773 56.1374L52.5867 56.4724C52.8399 56.5286 53.094 56.3819 53.1719 56.1346L53.6365 54.6599C53.6997 54.4593 53.8816 54.3197 54.0917 54.3106L55.6364 54.2435C55.8955 54.2323 56.103 54.0248 56.1142 53.7657ZM45.9842 58.2416L46.2555 57.9929L46.3513 58.1589L38.2497 72.1914L36.0597 66.8048C35.9736 66.5929 35.7546 66.4665 35.528 66.4978L29.7681 67.2945L37.2608 54.3168C37.445 54.3471 37.5991 54.4786 37.6562 54.6599L38.1208 56.1346C38.1987 56.3819 38.4528 56.5286 38.706 56.4724L40.2154 56.1374C40.4207 56.0919 40.6326 56.1796 40.7455 56.357L41.5759 57.6612C41.7152 57.88 41.9987 57.9559 42.2287 57.8361L43.5999 57.1218C43.7864 57.0247 44.0138 57.0546 44.1688 57.1967L45.3085 58.2416C45.4996 58.4168 45.7931 58.4168 45.9842 58.2416Z" fill="url(#paint0_radial_617_2150)"/>
<defs>
<radialGradient id="paint0_radial_617_2150" cx="0" cy="0" r="1" gradientUnits="userSpaceOnUse" gradientTransform="translate(47.9454 8.94221) rotate(90) scale(78.9617 74.4088)">
<stop stop-color="#F24942"/>
<stop offset="1" stop-color="#9F0B0B" stop-opacity="0"/>
</radialGradient>
</defs>
</svg>
