<svg width="89" height="88" viewBox="0 0 89 88" fill="none" xmlns="http://www.w3.org/2000/svg">
<path fill-rule="evenodd" clip-rule="evenodd" d="M44.5003 7H43.5322L42.6125 7.38554L28.5265 21.3133C27.9215 22.1084 28.1272 22.7108 29.1316 22.7108H35.3638C36.3803 22.7108 37.179 23.506 37.179 24.506V34.8434C37.179 35.8434 37.9898 36.6386 38.9942 36.6386H49.244C50.4541 36.6386 51.2649 35.8434 51.2649 34.8434V24.506C51.2649 23.506 52.0636 22.7108 53.068 22.7108H58.9008C59.9052 22.7108 60.111 22.1084 59.5059 21.3133L45.4321 7.38554L44.5003 7ZM67.759 29.6748C67.4564 29.2772 67.1539 29.1326 66.924 29.2049C66.694 29.2772 66.5488 29.5784 66.5488 30.0724V58.5182C66.5488 59.0242 66.694 59.3736 66.924 59.4941C67.1539 59.6146 67.4564 59.5182 67.759 59.1206L81.4334 45.5905C82.2321 45.0001 82.2321 43.7953 81.4334 43.0001L67.759 29.6748ZM21.4836 28.9035C21.7377 29.024 21.8951 29.3734 21.8951 29.8794V58.9156C21.8951 59.4216 21.7377 59.7228 21.4836 59.8192C21.2416 59.9156 20.8907 59.8192 20.4792 59.518L6.59901 45.5903C5.80033 44.9999 5.80033 43.7951 6.59901 42.9999L20.4792 29.277C20.8907 28.8794 21.2416 28.783 21.4836 28.9035ZM49.244 51.7593H38.9942C37.9898 51.7593 37.179 52.5545 37.179 53.5545V64.4942C37.179 65.687 36.3803 66.4822 35.3638 66.4822H29.531C28.5266 66.4822 28.1272 67.0725 28.938 67.6749L42.6125 81.3978C43.0118 81.7954 43.5201 82.0002 44.0162 82.0002C44.5245 82.0002 45.0207 81.7954 45.4321 81.3978L59.1066 67.6749C59.9053 67.0725 59.5059 66.4822 58.5015 66.4822H53.068C52.0636 66.4822 51.2649 65.687 51.2649 64.4942V53.5545C51.2649 52.5545 50.4541 51.7593 49.244 51.7593Z" fill="url(#paint0_radial_617_2145)"/>
<defs>
<radialGradient id="paint0_radial_617_2145" cx="0" cy="0" r="1" gradientUnits="userSpaceOnUse" gradientTransform="translate(48.1684 15.6663) rotate(90) scale(80.7257 94.461)">
<stop stop-color="#F24942"/>
<stop offset="1" stop-color="#9F0B0B" stop-opacity="0"/>
</radialGradient>
</defs>
</svg>
