<svg width="24" height="24" viewBox="0 0 24 24" fill="none" xmlns="http://www.w3.org/2000/svg">
<path d="M7.3 5H2.4C2.0287 5 1.6726 5.1475 1.41005 5.41005C1.1475 5.6726 1 6.0287 1 6.4V17.6C1 17.9713 1.1475 18.3274 1.41005 18.5899C1.6726 18.8525 2.0287 19 2.4 19H10.8C11.1713 19 11.5274 18.8525 11.7899 18.5899C12.0525 18.3274 12.2 17.9713 12.2 17.6V9.9L7.3 5Z" stroke="#838D97" stroke-linecap="round" stroke-linejoin="round"/>
<path d="M7.30029 5V9.9H12.2003" stroke="#838D97" stroke-linecap="round" stroke-linejoin="round"/>
<path d="M4 4.4C4 4.0287 4.1475 3.6726 4.41005 3.41005C4.6726 3.1475 5.0287 3 5.4 3H10.3L15.2 7.9V15.6C15.2 15.9713 15.0525 16.3274 14.7899 16.5899C14.5274 16.8525 14.1713 17 13.8 17H12.5" stroke="#838D97" stroke-linecap="round" stroke-linejoin="round"/>
</svg>
