<svg width="24" height="24" viewBox="0 0 24 24" fill="none" xmlns="http://www.w3.org/2000/svg">
<path d="M22 12.0608C22 16.7967 18.7425 20.7689 14.3617 21.8387C13.9438 21.9408 13.5583 21.6109 13.5583 21.1807V14.9885H15.8825L16.325 12.0876H13.5583V10.2054C13.5583 9.41144 13.945 8.63844 15.1833 8.63844H16.4408V6.16852C16.4408 6.16852 15.2992 5.97233 14.2083 5.97233C11.93 5.97233 10.4417 7.36156 10.4417 9.87592V12.0868H7.90917V14.9876H10.4417V21.1797C10.4417 21.6099 10.0561 21.9399 9.63821 21.8377C5.25808 20.7672 2 16.7958 2 12.0608C2 6.50472 6.4775 2 12 2C17.5225 2 22 6.50388 22 12.0608Z" fill="url(#paint0_linear_2167_17876)" fill-opacity="0.04"/>
<path d="M22 12.0608C22 16.7967 18.7425 20.7689 14.3617 21.8387C13.9438 21.9408 13.5583 21.6109 13.5583 21.1807V14.9885H15.8825L16.325 12.0876H13.5583V10.2054C13.5583 9.41144 13.945 8.63844 15.1833 8.63844H16.4408V6.16852C16.4408 6.16852 15.2992 5.97233 14.2083 5.97233C11.93 5.97233 10.4417 7.36156 10.4417 9.87592V12.0868H7.90917V14.9876H10.4417V21.1797C10.4417 21.6099 10.0561 21.9399 9.63821 21.8377C5.25808 20.7672 2 16.7958 2 12.0608C2 6.50472 6.4775 2 12 2C17.5225 2 22 6.50388 22 12.0608Z" fill="url(#paint1_radial_2167_17876)" fill-opacity="0.04"/>
<path d="M22 12.0608C22 16.7967 18.7425 20.7689 14.3617 21.8387C13.9438 21.9408 13.5583 21.6109 13.5583 21.1807V14.9885H15.8825L16.325 12.0876H13.5583V10.2054C13.5583 9.41144 13.945 8.63844 15.1833 8.63844H16.4408V6.16852C16.4408 6.16852 15.2992 5.97233 14.2083 5.97233C11.93 5.97233 10.4417 7.36156 10.4417 9.87592V12.0868H7.90917V14.9876H10.4417V21.1797C10.4417 21.6099 10.0561 21.9399 9.63821 21.8377C5.25808 20.7672 2 16.7958 2 12.0608C2 6.50472 6.4775 2 12 2C17.5225 2 22 6.50388 22 12.0608Z" stroke="#FF4B44" stroke-linejoin="round"/>
<defs>
<linearGradient id="paint0_linear_2167_17876" x1="22" y1="2" x2="4.12051" y2="3.07767" gradientUnits="userSpaceOnUse">
<stop stop-color="#F14942"/>
<stop offset="1" stop-color="#F15742"/>
</linearGradient>
<radialGradient id="paint1_radial_2167_17876" cx="0" cy="0" r="1" gradientUnits="userSpaceOnUse" gradientTransform="translate(19.1488 2.00001) rotate(109.669) scale(21.2392 61.4535)">
<stop stop-color="#EC2347"/>
<stop offset="1" stop-color="#E02E26" stop-opacity="0"/>
</radialGradient>
</defs>
</svg>
