<svg width="24" height="24" viewBox="0 0 24 24" fill="none" xmlns="http://www.w3.org/2000/svg">
<path fill-rule="evenodd" clip-rule="evenodd" d="M19.3631 4.552C17.3978 2.585 14.7851 1.50088 12.0017 1.5C6.26606 1.5 1.59794 6.16725 1.59531 11.9055C1.59444 13.7395 2.07394 15.5297 2.98481 17.1082L1.50781 22.5L7.02381 21.0528C8.54369 21.8823 10.2552 22.3189 11.9964 22.3198H12.0008C17.7356 22.3198 22.4046 17.6516 22.4072 11.9134C22.4089 9.1335 21.3274 6.51812 19.3631 4.552Z" fill="url(#paint0_linear_2167_17871)" fill-opacity="0.04"/>
<path fill-rule="evenodd" clip-rule="evenodd" d="M19.3631 4.552C17.3978 2.585 14.7851 1.50088 12.0017 1.5C6.26606 1.5 1.59794 6.16725 1.59531 11.9055C1.59444 13.7395 2.07394 15.5297 2.98481 17.1082L1.50781 22.5L7.02381 21.0528C8.54369 21.8823 10.2552 22.3189 11.9964 22.3198H12.0008C17.7356 22.3198 22.4046 17.6516 22.4072 11.9134C22.4089 9.1335 21.3274 6.51812 19.3631 4.552Z" fill="url(#paint1_radial_2167_17871)" fill-opacity="0.04"/>
<path fill-rule="evenodd" clip-rule="evenodd" d="M19.3631 4.552C17.3978 2.585 14.7851 1.50088 12.0017 1.5C6.26606 1.5 1.59794 6.16725 1.59531 11.9055C1.59444 13.7395 2.07394 15.5297 2.98481 17.1082L1.50781 22.5L7.02381 21.0528C8.54369 21.8823 10.2552 22.3189 11.9964 22.3198H12.0008C17.7356 22.3198 22.4046 17.6516 22.4072 11.9134C22.4089 9.1335 21.3274 6.51812 19.3631 4.552Z" stroke="#FF4B44" stroke-linejoin="round"/>
<g filter="url(#filter0_i_2167_17871)">
<path fill-rule="evenodd" clip-rule="evenodd" d="M16.7467 14.0848C16.4868 13.9545 15.2085 13.3253 14.9696 13.2387C14.7316 13.1521 14.5583 13.1083 14.3842 13.3682C14.2101 13.6281 13.7131 14.2143 13.5608 14.3885C13.4095 14.5617 13.2572 14.5836 12.9973 14.4532C12.7375 14.3228 11.8992 14.049 10.9061 13.1626C10.1335 12.4731 9.61109 11.6217 9.45972 11.361C9.30834 11.1002 9.44397 10.9602 9.57347 10.8307C9.69072 10.7143 9.83334 10.5271 9.96372 10.3748C10.095 10.2243 10.1378 10.1158 10.2253 9.94171C10.312 9.76846 10.2691 9.61621 10.2035 9.48584C10.1378 9.35634 9.61809 8.07621 9.40197 7.55559C9.19109 7.04809 8.97672 7.11721 8.81659 7.10934C8.66522 7.10146 8.49197 7.10059 8.31784 7.10059C8.14459 7.10059 7.86284 7.16534 7.62484 7.42609C7.38684 7.68684 6.71484 8.31596 6.71484 9.59521C6.71484 10.8656 7.63264 12.093 7.77313 12.2808C7.77421 12.2823 7.77622 12.285 7.77622 12.285C7.90572 12.4582 9.60934 15.085 12.2177 16.2111C12.8381 16.4788 13.3228 16.639 13.7 16.7588C14.323 16.9566 14.89 16.9286 15.338 16.8621C15.8376 16.7877 16.8762 16.233 17.0932 15.6257C17.3102 15.0185 17.3102 14.497 17.2446 14.3893C17.1798 14.28 17.0066 14.2152 16.7467 14.0848Z" fill="#F24942"/>
<path fill-rule="evenodd" clip-rule="evenodd" d="M14.9696 13.2387C15.2085 13.3253 16.4868 13.9545 16.7467 14.0848C17.0066 14.2152 17.1798 14.28 17.2446 14.3893C17.3102 14.497 17.3102 15.0185 17.0932 15.6257C16.8762 16.233 15.8376 16.7877 15.338 16.8621C14.89 16.9286 14.323 16.9566 13.7 16.7588C13.3228 16.639 12.8381 16.4788 12.2177 16.2111C9.60934 15.085 7.90572 12.4582 7.77622 12.285L7.77313 12.2808C7.63264 12.093 6.71484 10.8656 6.71484 9.59521C6.71484 8.31596 7.38684 7.68684 7.62484 7.42609C7.86284 7.16534 8.14459 7.10059 8.31784 7.10059C8.49197 7.10059 8.66522 7.10146 8.81659 7.10934C8.97672 7.11721 9.19109 7.04809 9.40197 7.55559C9.61809 8.07621 10.1378 9.35634 10.2035 9.48584C10.2691 9.61621 10.312 9.76846 10.2253 9.94171C10.1378 10.1158 10.095 10.2243 9.96372 10.3748C9.83334 10.5271 9.69072 10.7143 9.57347 10.8307C9.44397 10.9602 9.30834 11.1002 9.45972 11.361C9.61109 11.6217 10.1335 12.4731 10.9061 13.1626C11.8992 14.049 12.7375 14.3228 12.9973 14.4532C13.2572 14.5836 13.4095 14.5617 13.5608 14.3885C13.7131 14.2143 14.2101 13.6281 14.3842 13.3682C14.5583 13.1083 14.7316 13.1521 14.9696 13.2387Z" fill="#F24942"/>
</g>
<defs>
<filter id="filter0_i_2167_17871" x="6.71484" y="7.10059" width="10.5684" height="9.81152" filterUnits="userSpaceOnUse" color-interpolation-filters="sRGB">
<feFlood flood-opacity="0" result="BackgroundImageFix"/>
<feBlend mode="normal" in="SourceGraphic" in2="BackgroundImageFix" result="shape"/>
<feColorMatrix in="SourceAlpha" type="matrix" values="0 0 0 0 0 0 0 0 0 0 0 0 0 0 0 0 0 0 127 0" result="hardAlpha"/>
<feOffset/>
<feGaussianBlur stdDeviation="1"/>
<feComposite in2="hardAlpha" operator="arithmetic" k2="-1" k3="1"/>
<feColorMatrix type="matrix" values="0 0 0 0 0 0 0 0 0 0 0 0 0 0 0 0 0 0 0.25 0"/>
<feBlend mode="normal" in2="shape" result="effect1_innerShadow_2167_17871"/>
</filter>
<linearGradient id="paint0_linear_2167_17871" x1="22.4072" y1="1.5" x2="3.72304" y2="2.62077" gradientUnits="userSpaceOnUse">
<stop stop-color="#F14942"/>
<stop offset="1" stop-color="#F15742"/>
</linearGradient>
<radialGradient id="paint1_radial_2167_17871" cx="0" cy="0" r="1" gradientUnits="userSpaceOnUse" gradientTransform="translate(19.4277 1.50001) rotate(109.582) scale(22.2891 64.2518)">
<stop stop-color="#EC2347"/>
<stop offset="1" stop-color="#E02E26" stop-opacity="0"/>
</radialGradient>
</defs>
</svg>
