<svg width="24" height="24" viewBox="0 0 24 24" fill="none" xmlns="http://www.w3.org/2000/svg">
<path d="M9.70481 14.8272L9.35192 19.7907C9.85681 19.7907 10.0755 19.5738 10.3377 19.3134L12.7048 17.0512L17.6097 20.6432C18.5093 21.1445 19.143 20.8805 19.3857 19.8156L22.6053 4.72938L22.6061 4.72849C22.8915 3.39871 22.1253 2.87871 21.2488 3.20493L2.32436 10.4503C1.03281 10.9516 1.05236 11.6716 2.10481 11.9978L6.94303 13.5027L18.1813 6.47071C18.7101 6.12049 19.191 6.31427 18.7955 6.66449L9.70481 14.8272Z" fill="url(#paint0_linear_2167_17885)" fill-opacity="0.04"/>
<path d="M9.70481 14.8272L9.35192 19.7907C9.85681 19.7907 10.0755 19.5738 10.3377 19.3134L12.7048 17.0512L17.6097 20.6432C18.5093 21.1445 19.143 20.8805 19.3857 19.8156L22.6053 4.72938L22.6061 4.72849C22.8915 3.39871 22.1253 2.87871 21.2488 3.20493L2.32436 10.4503C1.03281 10.9516 1.05236 11.6716 2.10481 11.9978L6.94303 13.5027L18.1813 6.47071C18.7101 6.12049 19.191 6.31427 18.7955 6.66449L9.70481 14.8272Z" fill="url(#paint1_radial_2167_17885)" fill-opacity="0.04"/>
<path d="M9.70481 14.8272L9.35192 19.7907C9.85681 19.7907 10.0755 19.5738 10.3377 19.3134L12.7048 17.0512L17.6097 20.6432C18.5093 21.1445 19.143 20.8805 19.3857 19.8156L22.6053 4.72938L22.6061 4.72849C22.8915 3.39871 22.1253 2.87871 21.2488 3.20493L2.32436 10.4503C1.03281 10.9516 1.05236 11.6716 2.10481 11.9978L6.94303 13.5027L18.1813 6.47071C18.7101 6.12049 19.191 6.31427 18.7955 6.66449L9.70481 14.8272Z" stroke="#FF4B44" stroke-linejoin="round"/>
<defs>
<linearGradient id="paint0_linear_2167_17885" x1="22.6668" y1="3.11035" x2="3.62613" y2="4.4875" gradientUnits="userSpaceOnUse">
<stop stop-color="#F14942"/>
<stop offset="1" stop-color="#F15742"/>
</linearGradient>
<radialGradient id="paint1_radial_2167_17885" cx="0" cy="0" r="1" gradientUnits="userSpaceOnUse" gradientTransform="translate(19.6256 3.11036) rotate(113.215) scale(19.3441 63.9741)">
<stop stop-color="#EC2347"/>
<stop offset="1" stop-color="#E02E26" stop-opacity="0"/>
</radialGradient>
</defs>
</svg>
