<svg width="24" height="24" viewBox="0 0 24 24" fill="none" xmlns="http://www.w3.org/2000/svg">
    <path d="M11.8316 20.4758L11.829 20.4735H11.8286L11.8316 20.4758Z" fill="white" />
    <path
        d="M17.7966 2.76222C16.3534 4.2078 15.4431 6.1002 15.2147 8.13011L14.6918 12.8521C14.6868 12.8972 14.6914 12.9428 14.7052 12.9861C14.719 13.0293 14.7418 13.0691 14.772 13.103C14.8023 13.1368 14.8393 13.1638 14.8808 13.1824C14.9222 13.2009 14.967 13.2105 15.0124 13.2105C15.2692 13.2105 15.5155 13.3126 15.6971 13.4941C15.8787 13.6757 15.9807 13.922 15.9807 14.1788C15.9807 14.4356 15.8787 14.6818 15.6971 14.8634C15.5155 15.045 15.2692 15.147 15.0124 15.147C14.7989 15.1492 14.5861 15.1717 14.3768 15.2141C14.1306 14.7853 13.854 14.3746 13.5493 13.9851C12.9185 13.1443 12.3229 12.3499 12.3229 11.1665V7.39468C12.8562 6.59897 13.1545 5.66907 13.1835 4.7116C13.1511 3.71647 12.8296 2.75231 12.2583 1.93685C12.2268 1.89894 12.1874 1.86842 12.1428 1.84748C12.0981 1.82653 12.0494 1.81567 12.0001 1.81567C11.9509 1.81567 11.9022 1.82653 11.8575 1.84748C11.8129 1.86842 11.7735 1.89894 11.742 1.93685C11.1707 2.75231 10.8492 3.71647 10.8168 4.7116C10.8458 5.66907 11.1441 6.59897 11.6774 7.39468V11.1665C11.6774 12.3499 11.0818 13.146 10.451 13.9851C10.1463 14.3746 9.86972 14.7853 9.62346 15.2141C9.4142 15.1717 9.20138 15.1492 8.98787 15.147C8.73108 15.147 8.4848 15.045 8.30322 14.8634C8.12165 14.6818 8.01964 14.4356 8.01964 14.1788C8.01964 13.922 8.12165 13.6757 8.30322 13.4941C8.4848 13.3126 8.73108 13.2105 8.98787 13.2105C9.03325 13.2105 9.07812 13.2009 9.11954 13.1824C9.16097 13.1638 9.19801 13.1368 9.22827 13.103C9.25852 13.0691 9.2813 13.0293 9.29512 12.9861C9.30894 12.9428 9.31348 12.8972 9.30846 12.8521L8.78389 8.13011C8.55545 6.1002 7.64521 4.2078 6.20194 2.76222C6.1568 2.71714 6.09932 2.68645 6.03675 2.67402C5.97418 2.66159 5.90934 2.66798 5.8504 2.69238C5.79146 2.71679 5.74107 2.75811 5.70561 2.81113C5.67014 2.86416 5.65118 2.9265 5.65112 2.99029V18.0517C5.65112 18.1373 5.68513 18.2194 5.74565 18.2799C5.80618 18.3405 5.88827 18.3745 5.97387 18.3745H9.28737C9.88295 20.2842 11.6946 21.669 11.8035 21.7508C11.8602 21.7929 11.929 21.8157 11.9997 21.8157C12.0704 21.8157 12.1392 21.7929 12.1959 21.7508C12.3048 21.669 14.1165 20.2842 14.7121 18.3745H18.0247C18.1103 18.3745 18.1924 18.3405 18.2529 18.2799C18.3134 18.2194 18.3475 18.1373 18.3475 18.0517V2.99029C18.3474 2.9265 18.3284 2.86416 18.293 2.81113C18.2575 2.75811 18.2071 2.71679 18.1482 2.69238C18.0892 2.66798 18.0244 2.66159 17.9618 2.67402C17.8993 2.68645 17.8418 2.71714 17.7966 2.76222ZM6.29833 3.82685C7.32158 5.07699 7.9619 6.59613 8.14228 8.20154L8.63156 12.6046C8.3293 12.6741 8.05339 12.829 7.83671 13.0508C7.62002 13.2727 7.47171 13.5522 7.40943 13.856H6.29833V3.82685ZM9.09545 17.1911C9.09669 17.3712 9.11107 17.551 9.13848 17.729H6.29833V14.5015H7.40642C7.48141 14.8656 7.67956 15.1928 7.96752 15.428C8.25549 15.6631 8.61567 15.7918 8.98744 15.7925C9.10569 15.7943 9.22371 15.8038 9.34074 15.8209C9.17703 16.2591 9.09393 16.7233 9.09545 17.1911ZM11.4622 4.7116C11.4814 4.02327 11.6659 3.34965 12.0001 2.74759C12.3344 3.34965 12.5188 4.02327 12.5381 4.7116C12.5188 5.39993 12.3344 6.07355 12.0001 6.67561C11.6659 6.07355 11.4814 5.39993 11.4622 4.7116ZM9.74094 17.1911C9.73992 16.7771 9.81806 16.3668 9.97116 15.9823C10.3563 16.1314 10.7025 16.3662 10.9835 16.6688C11.2646 16.9714 11.4732 17.3339 11.5935 17.729H9.79C9.75806 17.5514 9.74164 17.3714 9.74094 17.1911ZM11.6774 20.789C10.9368 20.1197 10.3529 19.2953 9.96729 18.3745H11.6774V20.789ZM12.0001 17.0077C11.6344 16.2781 11.0152 15.7067 10.2586 15.4005C10.4751 15.0446 10.7117 14.7013 10.9674 14.3724C11.3761 13.8696 11.7229 13.3194 12.0001 12.7337C12.2774 13.3194 12.6242 13.8696 13.0329 14.3724C13.2886 14.7013 13.5252 15.0446 13.7417 15.4005C12.9851 15.7067 12.3659 16.2781 12.0001 17.0077ZM12.3229 20.789V18.3745H14.033C13.6474 19.2953 13.0635 20.1197 12.3229 20.789ZM14.2103 17.729H12.4068C12.5271 17.3339 12.7357 16.9714 13.0168 16.6688C13.2978 16.3662 13.644 16.1314 14.0291 15.9823C14.1822 16.3668 14.2604 16.7771 14.2594 17.1911C14.2587 17.3714 14.2422 17.5514 14.2103 17.729ZM17.702 17.729H14.8618C14.8892 17.551 14.9036 17.3712 14.9048 17.1911C14.9064 16.7233 14.8233 16.2591 14.6596 15.8209C14.7764 15.8038 14.8943 15.7943 15.0124 15.7925C15.3842 15.7918 15.7444 15.6631 16.0323 15.428C16.3203 15.1928 16.5185 14.8656 16.5934 14.5015H17.702V17.729ZM17.702 13.856H16.5909C16.5286 13.5522 16.3803 13.2727 16.1636 13.0508C15.9469 12.829 15.671 12.6741 15.3687 12.6046L15.858 8.20154C16.0384 6.59613 16.6787 5.07699 17.702 3.82685V13.856Z"
        fill="white" stroke="white" stroke-width="0.5" />
</svg>
