<svg width="104" height="104" viewBox="0 0 104 104" fill="none" xmlns="http://www.w3.org/2000/svg">
<circle cx="52" cy="52" r="48" stroke="#B73E38"/>
<g clip-path="url(#clip0_2751_745)">
<path d="M12 85L12 52.8209M44 56.8433V52.8209M44 52.8209V51.6375C44 51.5513 43.966 51.4687 43.9054 51.4078L43.704 51.2052C43.6866 51.1878 43.6769 51.1642 43.6769 51.1396C43.6769 50.2122 43.398 49.3066 42.8767 48.5416L42.8064 48.4384C41.3997 46.3739 40.2523 44.1424 39.3903 41.7948L38.7497 40.0501L39.2061 39.6971C39.5849 39.404 39.8267 38.9667 39.8742 38.4885C39.9677 37.5491 39.3006 36.7055 38.3694 36.5855L27.273 36L17.6306 36.5855C16.6994 36.7055 16.0323 37.5491 16.1258 38.4885C16.1733 38.9667 16.4151 39.404 16.7939 39.6971L17.2503 40.0501L16.6097 41.7948C15.7477 44.1424 14.6003 46.3739 13.1936 48.4384L13.1233 48.5416C12.602 49.3066 12.3231 50.2122 12.3231 51.1396C12.3231 51.1642 12.3134 51.1878 12.2961 51.2052L12.0946 51.4078C12.034 51.4687 12 51.5513 12 51.6375L12 52.8209M44 52.8209L42.5639 52.9779C32.4031 54.0885 22.1488 54.0358 12 52.8209V52.8209" stroke="#F24942" stroke-linecap="round" stroke-linejoin="round"/>
<path d="M22.0509 40.0012L22.5735 40.1251C25.8892 40.9109 29.3675 40.8921 32.6731 40.0704L32.9495 40.0017C32.9762 39.9951 33.002 40.0149 32.9999 40.0404L32.8846 41.4559C32.6394 44.4651 30.4689 47.0443 27.3788 47.9986C27.3724 48.0005 27.3655 48.0005 27.3592 47.9984C24.4191 47.0414 22.3686 44.5636 22.134 41.6847L22.0001 40.0407C21.998 40.0149 22.0239 39.9948 22.0509 40.0012Z" stroke="#F24942" stroke-linecap="round" stroke-linejoin="round"/>
<path fill-rule="evenodd" clip-rule="evenodd" d="M71.0578 28.5863C71.0578 28.233 70.7475 27.9599 70.3971 28.0048L65.5059 28.6319C64.2335 28.7951 63.3221 29.9412 63.4498 31.2176C63.5147 31.8674 63.845 32.4615 64.3626 32.8597L64.563 33.0138L63.9999 34.5389C63.085 37.0168 61.8672 39.3721 60.3742 41.5511L60.2984 41.6618C59.7113 42.5186 59.3831 43.5249 59.3509 44.5608L59.2485 44.6632C59.0894 44.8223 59 45.0381 59 45.2631V48.4573C59 48.6823 59.0894 48.8981 59.2485 49.0572L59.3483 49.157V50.2559C59.3483 50.4362 59.4045 50.6034 59.5004 50.7408V56.0552C59.5004 56.3313 59.7243 56.5552 60.0004 56.5552C60.2765 56.5552 60.5004 56.3313 60.5004 56.0552V51.1042H76.2173H91.7693V84.2381C91.7693 84.5143 91.9932 84.7381 92.2693 84.7381C92.5455 84.7381 92.7693 84.5143 92.7693 84.2381V50.9173C92.9626 50.7618 93.0864 50.5233 93.0864 50.2559V49.157L93.1862 49.0572C93.3453 48.8981 93.4346 48.6823 93.4346 48.4573V45.2631C93.4346 45.0381 93.3453 44.8223 93.1862 44.6632L93.0838 44.5608C93.0516 43.5249 92.7234 42.5186 92.1363 41.6617L92.0605 41.5511C90.5674 39.3721 89.3496 37.0168 88.4347 34.5389L87.8716 33.0138L88.072 32.8597C88.5896 32.4615 88.9199 31.8674 88.9849 31.2176C89.1125 29.9412 88.2011 28.7951 86.9288 28.6319L82.0376 28.0048C81.6871 27.9599 81.3768 28.233 81.3768 28.5863V35.3072L81.3097 35.5841C80.9079 37.2415 79.7821 38.5446 78.3413 39.225L78.3413 38.6899C78.6394 38.5549 78.8042 38.2 78.6714 37.8681C78.6029 37.6967 78.478 37.5594 78.3231 37.4741C78.8813 36.9277 79.2278 36.1658 79.2278 35.3229C79.2278 34.5324 78.923 33.8131 78.4246 33.2761H79.0865C79.3139 33.2761 79.5656 33.1188 79.611 32.8292L79.6686 32.4608C79.7438 31.9804 79.6951 31.4909 79.5276 31.0325C79.3565 30.5646 78.8973 30.2865 78.4228 30.2865H74.0457C73.6136 30.2865 73.1929 30.5217 73.0011 30.9302C72.7632 31.4369 72.6814 31.9965 72.7675 32.5463L72.8124 32.8329C72.8573 33.1204 73.1071 33.2761 73.3322 33.2761H74.0119C73.5134 33.8131 73.2086 34.5324 73.2086 35.3229C73.2086 36.1655 73.5549 36.9273 74.1129 37.4736C73.9575 37.5588 73.8323 37.6963 73.7636 37.8681C73.6308 38.2 73.7956 38.5549 74.0936 38.6898L74.0936 39.2252C72.6527 38.5448 71.5268 37.2416 71.1249 35.5841L71.0578 35.3072V28.5863ZM76.2174 40.7422L76.2119 40.742L76.2012 40.7418C74.182 40.6764 72.3254 39.6611 71.1724 38.0496C71.26 38.7181 71.4144 39.3713 71.6865 39.9605C71.9992 40.6375 72.4642 41.2184 73.1644 41.6351C73.8686 42.0543 74.8466 42.3285 76.2173 42.3285C77.6112 42.3285 78.6001 42.0537 79.3079 41.6346C80.0111 41.2182 80.4725 40.6385 80.7795 39.9632C81.0514 39.3654 81.1998 38.7022 81.2808 38.0236C80.1292 39.6501 78.2635 40.6761 76.2335 40.7418L76.2231 40.742L76.2174 40.7422ZM70.0578 29.0565V35.3669L70.0577 35.5259V35.5259C70.0566 36.9142 70.0551 38.8133 70.7787 40.3798C71.1625 41.2108 71.7533 41.959 72.653 42.4945C73.5486 43.0275 74.7148 43.3285 76.2173 43.3285C77.7402 43.3285 78.9172 43.0281 79.8174 42.495C80.7224 41.9592 81.3112 41.2097 81.6898 40.3771C82.3846 38.8493 82.3804 37.0026 82.3772 35.6297C82.377 35.54 82.3768 35.4523 82.3768 35.3669V29.0565L86.8016 29.6238C87.5369 29.7181 88.0636 30.3804 87.9898 31.1181C87.9523 31.4936 87.7614 31.837 87.4623 32.0671L86.9703 32.4455C86.7968 32.579 86.7303 32.8097 86.8061 33.015L87.4966 34.8852C88.4401 37.4405 89.6959 39.8693 91.2355 42.1163L91.3113 42.227C91.8162 42.9638 92.0864 43.8361 92.0864 44.7293C92.0864 44.8883 92.1495 45.0408 92.262 45.1532L92.4346 45.3259V48.3945L92.3348 48.4943C92.1757 48.6534 92.0864 48.8692 92.0864 49.0942V50.1042H76.2173H60.3483V49.0942C60.3483 48.8692 60.2589 48.6534 60.0998 48.4943L60 48.3945V45.3259L60.1727 45.1532C60.2851 45.0408 60.3483 44.8883 60.3483 44.7293C60.3483 43.8361 60.6184 42.9638 61.1233 42.227L60.7286 41.9565L61.1233 42.227L61.1991 42.1163C62.7387 39.8693 63.9946 37.4405 64.938 34.8852L65.6286 33.015C65.7044 32.8097 65.6378 32.579 65.4644 32.4455L64.9724 32.0671C64.6732 31.837 64.4823 31.4936 64.4448 31.1181C64.371 30.3804 64.8977 29.7181 65.633 29.6238L70.0578 29.0565ZM74.0457 31.2865H78.4228C78.5246 31.2865 78.577 31.3448 78.5884 31.3758C78.6947 31.6667 78.7273 31.9741 78.6851 32.2761H73.7412C73.7132 31.9635 73.7689 31.6477 73.9062 31.3553C73.9174 31.3315 73.9624 31.2865 74.0457 31.2865ZM76.2182 33.3133C75.1084 33.3133 74.2086 34.213 74.2086 35.3229C74.2086 36.4328 75.1084 37.3325 76.2182 37.3325C77.3281 37.3325 78.2278 36.4328 78.2278 35.3229C78.2278 34.213 77.3281 33.3133 76.2182 33.3133ZM77.3413 38.3773H76.2175H75.0937L75.0936 39.5573C75.4547 39.6647 75.8318 39.7278 76.2174 39.7416C76.6031 39.7278 76.9802 39.6647 77.3413 39.5573L77.3413 38.3773Z" fill="#F24942"/>
<path fill-rule="evenodd" clip-rule="evenodd" d="M47.0578 56.6639C47.0578 56.3094 46.7465 56.0355 46.3949 56.0805L41.3929 56.7218C40.0978 56.8879 39.1701 58.0545 39.3 59.3537C39.3662 60.0151 39.7024 60.6199 40.2292 61.0252L40.4407 61.1879L39.862 62.7553C38.9261 65.2902 37.6802 67.6997 36.1529 69.9288L36.0753 70.042C35.4753 70.9177 35.1402 71.9464 35.1082 73.0052L35.0003 73.1131C34.8397 73.2737 34.7495 73.4914 34.7495 73.7185V76.9852C34.7495 77.2122 34.8397 77.43 35.0003 77.5906L35.1057 77.696V78.8245C35.1057 79.0079 35.1633 79.1778 35.2615 79.3172V116.218C35.2615 116.494 35.4854 116.718 35.7615 116.718C36.0377 116.718 36.2615 116.494 36.2615 116.218V79.6807H52.3456H68.2615V113.577C68.2615 113.853 68.4854 114.077 68.7615 114.077C69.0376 114.077 69.2615 113.853 69.2615 113.577V79.4952C69.4589 79.3383 69.5854 79.0962 69.5854 78.8245V77.696L69.6908 77.5906C69.8514 77.43 69.9416 77.2122 69.9416 76.9852V73.7185C69.9416 73.4914 69.8514 73.2737 69.6908 73.1131L69.5829 73.0052C69.5509 71.9464 69.2158 70.9177 68.6158 70.042L68.5383 69.9288C67.0109 67.6997 65.7651 65.2902 64.8291 62.7553L64.2504 61.1879L64.4619 61.0252C64.9887 60.6199 65.325 60.0151 65.3911 59.3537C65.521 58.0545 64.5933 56.8879 63.2982 56.7218L58.2962 56.0805C57.9446 56.0355 57.6333 56.3094 57.6333 56.6639V63.5384L57.5643 63.8229C57.1511 65.5274 55.9906 66.8663 54.5065 67.5615L54.5066 66.9889C54.8102 66.8556 54.9793 66.4961 54.8449 66.1601C54.7738 65.9823 54.6426 65.841 54.4802 65.7556C55.0554 65.1982 55.413 64.4175 55.413 63.5532C55.413 62.7383 55.095 61.9976 54.5765 61.4484H55.2801C55.5079 61.4484 55.76 61.2908 55.8053 61.001L55.8643 60.6242C55.9409 60.1348 55.8913 59.6362 55.7206 59.1692C55.5475 58.6956 55.0825 58.4137 54.6014 58.4137L50.1252 58.4137C49.6873 58.4137 49.2613 58.6521 49.0672 59.0655C48.8248 59.5816 48.7416 60.1517 48.8292 60.7116L48.8751 61.0048C48.9201 61.2925 49.1702 61.4484 49.3955 61.4484H50.1166C49.598 61.9976 49.2801 62.7383 49.2801 63.5532C49.2801 64.4173 49.6374 65.1978 50.2124 65.7552C50.0497 65.8406 49.9181 65.9821 49.8469 66.1601C49.7125 66.4961 49.8816 66.8555 50.1853 66.9889L50.1853 67.5618C48.7009 66.8667 47.5401 65.5277 47.1268 63.8229L47.0578 63.5384V56.6639ZM52.3459 69.0838L52.3444 69.0837L52.3348 69.0836L52.3294 69.0835C50.2527 69.0163 48.3444 67.9647 47.1693 66.2981C47.2579 66.9983 47.4169 67.6837 47.7018 68.3006C48.0224 68.9946 48.4993 69.5906 49.2177 70.0181C49.94 70.448 50.9423 70.7288 52.3456 70.7288C53.7725 70.7288 54.7859 70.4475 55.512 70.0176C56.2333 69.5904 56.7066 68.9956 57.0214 68.3033C57.3059 67.6777 57.4585 66.9823 57.5402 66.2719C56.3667 67.9536 54.4493 69.0159 52.3617 69.0835L52.3488 69.0837L52.3474 69.0837L52.3459 69.0838ZM46.0578 57.1319V63.5981L46.0577 63.7601V63.7602C46.0566 65.1804 46.0551 67.1203 46.794 68.7199C47.1857 69.5679 47.7885 70.3312 48.7062 70.8775C49.62 71.4213 50.8104 71.7288 52.3456 71.7288C53.9015 71.7288 55.103 71.4219 56.0215 70.878C56.9446 70.3314 57.5454 69.5669 57.9318 68.7172C58.6411 67.1571 58.6369 65.2709 58.6337 63.8665V63.8654V63.8643C58.6335 63.7735 58.6333 63.6847 58.6333 63.5981V57.1319L63.1711 57.7137C63.9291 57.8109 64.4721 58.4937 64.3961 59.2542C64.3573 59.6413 64.1606 59.9953 63.8522 60.2325L63.349 60.6196C63.1756 60.753 63.109 60.9838 63.1848 61.1891L63.891 63.1017C64.8555 65.7139 66.1394 68.1969 67.7133 70.4941L67.7909 70.6072C68.3084 71.3626 68.5854 72.2569 68.5854 73.1726C68.5854 73.3322 68.6488 73.4853 68.7617 73.5982L68.9416 73.7781V76.9256L68.8362 77.031C68.6756 77.1915 68.5854 77.4093 68.5854 77.6364V78.6807H52.3456H36.1057V77.6364C36.1057 77.4093 36.0155 77.1916 35.8549 77.031L35.7495 76.9256V73.7781L35.9294 73.5982C36.0423 73.4853 36.1057 73.3322 36.1057 73.1726C36.1057 72.2569 36.3827 71.3626 36.9002 70.6072L36.4878 70.3246L36.9002 70.6072L36.9778 70.4941C38.5517 68.1969 39.8356 65.7139 40.8001 63.1017L41.5063 61.1891C41.5821 60.9838 41.5156 60.753 41.3421 60.6196L40.8389 60.2325C40.5306 59.9953 40.3338 59.6413 40.2951 59.2542C40.219 58.4938 40.762 57.8109 41.52 57.7137L46.0578 57.1319ZM50.1252 59.4137L54.6014 59.4137C54.7098 59.4137 54.768 59.4759 54.7814 59.5125C54.8919 59.8149 54.9251 60.1346 54.8795 60.4484H49.8035C49.7725 60.1233 49.8295 59.7947 49.9723 59.4906C49.9858 59.4619 50.0361 59.4137 50.1252 59.4137ZM52.3465 61.4868C51.2053 61.4868 50.2801 62.412 50.2801 63.5532C50.2801 64.6945 51.2053 65.6197 52.3465 65.6197C53.4878 65.6197 54.413 64.6945 54.413 63.5532C54.413 62.412 53.4878 61.4868 52.3465 61.4868ZM53.5066 66.6653H52.346H51.1853L51.1853 67.8918C51.558 68.0034 51.9475 68.0689 52.3459 68.0832C52.7442 68.0689 53.1337 68.0034 53.5065 67.8918L53.5066 66.6653Z" fill="#F24942"/>
</g>
<defs>
<clipPath id="clip0_2751_745">
<rect x="5" y="5" width="94" height="94" rx="47" fill="white"/>
</clipPath>
</defs>
</svg>
