<svg width="104" height="104" viewBox="0 0 104 104" fill="none" xmlns="http://www.w3.org/2000/svg">
<circle cx="52" cy="52" r="48" stroke="#B73E38"/>
<g clip-path="url(#clip0_2143_15252)">
<path d="M12 85L12 52.8209M44 56.8433V52.8209M44 52.8209V51.6375C44 51.5513 43.966 51.4687 43.9054 51.4078L43.704 51.2052C43.6866 51.1878 43.6769 51.1642 43.6769 51.1396C43.6769 50.2122 43.398 49.3066 42.8767 48.5416L42.8064 48.4384C41.3997 46.3739 40.2523 44.1424 39.3903 41.7948L38.7497 40.0501L39.2061 39.6971C39.5849 39.404 39.8267 38.9667 39.8742 38.4885C39.9677 37.5491 39.3006 36.7055 38.3694 36.5855L27.273 36L17.6306 36.5855C16.6994 36.7055 16.0323 37.5491 16.1258 38.4885C16.1733 38.9667 16.4151 39.404 16.7939 39.6971L17.2503 40.0501L16.6097 41.7948C15.7477 44.1424 14.6003 46.3739 13.1936 48.4384L13.1233 48.5416C12.602 49.3066 12.3231 50.2122 12.3231 51.1396C12.3231 51.1642 12.3134 51.1878 12.2961 51.2052L12.0946 51.4078C12.034 51.4687 12 51.5513 12 51.6375L12 52.8209M44 52.8209L42.5639 52.9779C32.4031 54.0885 22.1488 54.0358 12 52.8209V52.8209" stroke="#F24942" stroke-linecap="round" stroke-linejoin="round"/>
<path d="M22.0509 40.0012L22.5735 40.1251C25.8892 40.9109 29.3675 40.8921 32.6731 40.0704L32.9495 40.0017C32.9762 39.9951 33.002 40.0149 32.9999 40.0404L32.8846 41.4559C32.6394 44.4651 30.4689 47.0443 27.3788 47.9986C27.3724 48.0005 27.3655 48.0005 27.3592 47.9984C24.4191 47.0414 22.3686 44.5636 22.134 41.6847L22.0001 40.0407C21.998 40.0149 22.0239 39.9948 22.0509 40.0012Z" stroke="#F24942" stroke-linecap="round" stroke-linejoin="round"/>
<path fill-rule="evenodd" clip-rule="evenodd" d="M71.0578 28.5863C71.0578 28.233 70.7475 27.9599 70.3971 28.0048L65.5059 28.6319C64.2335 28.7951 63.3221 29.9412 63.4498 31.2176C63.5147 31.8674 63.845 32.4615 64.3626 32.8597L64.563 33.0138L63.9999 34.5389C63.085 37.0168 61.8672 39.3721 60.3742 41.5511L60.2984 41.6618C59.7113 42.5186 59.3831 43.5249 59.3509 44.5608L59.2485 44.6632C59.0894 44.8223 59 45.0381 59 45.2631V48.4573C59 48.6823 59.0894 48.8981 59.2485 49.0572L59.3483 49.157V50.2559C59.3483 50.4362 59.4045 50.6034 59.5004 50.7408V56.0552C59.5004 56.3313 59.7243 56.5552 60.0004 56.5552C60.2765 56.5552 60.5004 56.3313 60.5004 56.0552V51.1042H76.2173H91.7693V84.2381C91.7693 84.5143 91.9932 84.7381 92.2693 84.7381C92.5455 84.7381 92.7693 84.5143 92.7693 84.2381V50.9173C92.9626 50.7618 93.0864 50.5233 93.0864 50.2559V49.157L93.1862 49.0572C93.3453 48.8981 93.4346 48.6823 93.4346 48.4573V45.2631C93.4346 45.0381 93.3453 44.8223 93.1862 44.6632L93.0838 44.5608C93.0516 43.5249 92.7234 42.5186 92.1363 41.6617L92.0605 41.5511C90.5674 39.3721 89.3496 37.0168 88.4347 34.5389L87.8716 33.0138L88.072 32.8597C88.5896 32.4615 88.9199 31.8674 88.9849 31.2176C89.1125 29.9412 88.2011 28.7951 86.9288 28.6319L82.0376 28.0048C81.6871 27.9599 81.3768 28.233 81.3768 28.5863V35.3072L81.3097 35.5841C80.9079 37.2415 79.7821 38.5446 78.3413 39.225L78.3413 38.6899C78.6394 38.5549 78.8042 38.2 78.6714 37.8681C78.6029 37.6967 78.478 37.5594 78.3231 37.4741C78.8813 36.9277 79.2278 36.1658 79.2278 35.3229C79.2278 34.5324 78.923 33.8131 78.4246 33.2761H79.0865C79.3139 33.2761 79.5656 33.1188 79.611 32.8292L79.6686 32.4608C79.7438 31.9804 79.6951 31.4909 79.5276 31.0325C79.3565 30.5646 78.8973 30.2865 78.4228 30.2865H74.0457C73.6136 30.2865 73.1929 30.5217 73.0011 30.9302C72.7632 31.4369 72.6814 31.9965 72.7675 32.5463L72.8124 32.8329C72.8573 33.1204 73.1071 33.2761 73.3322 33.2761H74.0119C73.5134 33.8131 73.2086 34.5324 73.2086 35.3229C73.2086 36.1655 73.5549 36.9273 74.1129 37.4736C73.9575 37.5588 73.8323 37.6963 73.7636 37.8681C73.6308 38.2 73.7956 38.5549 74.0936 38.6898L74.0936 39.2252C72.6527 38.5448 71.5268 37.2416 71.1249 35.5841L71.0578 35.3072V28.5863ZM76.2174 40.7422L76.2119 40.742L76.2012 40.7418C74.182 40.6764 72.3254 39.6611 71.1724 38.0496C71.26 38.7181 71.4144 39.3713 71.6865 39.9605C71.9992 40.6375 72.4642 41.2184 73.1644 41.6351C73.8686 42.0543 74.8466 42.3285 76.2173 42.3285C77.6112 42.3285 78.6001 42.0537 79.3079 41.6346C80.0111 41.2182 80.4725 40.6385 80.7795 39.9632C81.0514 39.3654 81.1998 38.7022 81.2808 38.0236C80.1292 39.6501 78.2635 40.6761 76.2335 40.7418L76.2231 40.742L76.2174 40.7422ZM70.0578 29.0565V35.3669L70.0577 35.5259V35.5259C70.0566 36.9142 70.0551 38.8133 70.7787 40.3798C71.1625 41.2108 71.7533 41.959 72.653 42.4945C73.5486 43.0275 74.7148 43.3285 76.2173 43.3285C77.7402 43.3285 78.9172 43.0281 79.8174 42.495C80.7224 41.9592 81.3112 41.2097 81.6898 40.3771C82.3846 38.8493 82.3804 37.0026 82.3772 35.6297C82.377 35.54 82.3768 35.4523 82.3768 35.3669V29.0565L86.8016 29.6238C87.5369 29.7181 88.0636 30.3804 87.9898 31.1181C87.9523 31.4936 87.7614 31.837 87.4623 32.0671L86.9703 32.4455C86.7968 32.579 86.7303 32.8097 86.8061 33.015L87.4966 34.8852C88.4401 37.4405 89.6959 39.8693 91.2355 42.1163L91.3113 42.227C91.8162 42.9638 92.0864 43.8361 92.0864 44.7293C92.0864 44.8883 92.1495 45.0408 92.262 45.1532L92.4346 45.3259V48.3945L92.3348 48.4943C92.1757 48.6534 92.0864 48.8692 92.0864 49.0942V50.1042H76.2173H60.3483V49.0942C60.3483 48.8692 60.2589 48.6534 60.0998 48.4943L60 48.3945V45.3259L60.1727 45.1532C60.2851 45.0408 60.3483 44.8883 60.3483 44.7293C60.3483 43.8361 60.6184 42.9638 61.1233 42.227L60.7286 41.9565L61.1233 42.227L61.1991 42.1163C62.7387 39.8693 63.9946 37.4405 64.938 34.8852L65.6286 33.015C65.7044 32.8097 65.6378 32.579 65.4644 32.4455L64.9724 32.0671C64.6732 31.837 64.4823 31.4936 64.4448 31.1181C64.371 30.3804 64.8977 29.7181 65.633 29.6238L70.0578 29.0565ZM74.0457 31.2865H78.4228C78.5246 31.2865 78.577 31.3448 78.5884 31.3758C78.6947 31.6667 78.7273 31.9741 78.6851 32.2761H73.7412C73.7132 31.9635 73.7689 31.6477 73.9062 31.3553C73.9174 31.3315 73.9624 31.2865 74.0457 31.2865ZM76.2182 33.3133C75.1084 33.3133 74.2086 34.213 74.2086 35.3229C74.2086 36.4328 75.1084 37.3325 76.2182 37.3325C77.3281 37.3325 78.2278 36.4328 78.2278 35.3229C78.2278 34.213 77.3281 33.3133 76.2182 33.3133ZM77.3413 38.3773H76.2175H75.0937L75.0936 39.5573C75.4547 39.6647 75.8318 39.7278 76.2174 39.7416C76.6031 39.7278 76.9802 39.6647 77.3413 39.5573L77.3413 38.3773Z" fill="#F24942"/>
<path fill-rule="evenodd" clip-rule="evenodd" d="M47.0573 56.6639C47.0573 56.3094 46.746 56.0355 46.3944 56.0805L41.3924 56.7218C40.0973 56.8879 39.1696 58.0545 39.2995 59.3537C39.3657 60.0151 39.7019 60.6199 40.2287 61.0252L40.4403 61.1879L39.8615 62.7553C38.9256 65.2902 37.6797 67.6997 36.1524 69.9288L36.0748 70.042C35.4748 70.9177 35.1397 71.9464 35.1077 73.0052L34.9998 73.1131C34.8392 73.2737 34.749 73.4914 34.749 73.7185V76.9852C34.749 77.2122 34.8392 77.43 34.9998 77.5906L35.1052 77.696V78.8245C35.1052 79.0079 35.1629 79.1778 35.261 79.3172V116.218C35.261 116.494 35.4849 116.718 35.761 116.718C36.0372 116.718 36.261 116.494 36.261 116.218V79.6807H52.3451H68.261V113.577C68.261 113.853 68.4849 114.077 68.761 114.077C69.0372 114.077 69.261 113.853 69.261 113.577V79.4952C69.4584 79.3383 69.5849 79.0962 69.5849 78.8245V77.696L69.6903 77.5906C69.8509 77.43 69.9411 77.2122 69.9411 76.9852V73.7185C69.9411 73.4914 69.8509 73.2737 69.6903 73.1131L69.5824 73.0052C69.5504 71.9464 69.2153 70.9177 68.6153 70.042L68.5378 69.9288C67.0104 67.6997 65.7646 65.2902 64.8286 62.7553L64.2499 61.1879L64.4614 61.0252C64.9883 60.6199 65.3245 60.0151 65.3906 59.3537C65.5205 58.0545 64.5928 56.8879 63.2978 56.7218L58.2957 56.0805C57.9441 56.0355 57.6328 56.3094 57.6328 56.6639V63.5384L57.5638 63.8229C57.1506 65.5274 55.9901 66.8663 54.506 67.5615L54.5061 66.9889C54.8098 66.8556 54.9789 66.4961 54.8445 66.1601C54.7734 65.9823 54.6421 65.841 54.4797 65.7556C55.055 65.1982 55.4125 64.4175 55.4125 63.5532C55.4125 62.7383 55.0946 61.9976 54.576 61.4484H55.2797C55.5074 61.4484 55.7595 61.2908 55.8049 61.001L55.8638 60.6242C55.9404 60.1348 55.8908 59.6362 55.7201 59.1692C55.547 58.6956 55.082 58.4137 54.601 58.4137L50.1247 58.4137C49.6868 58.4137 49.2608 58.6521 49.0667 59.0655C48.8243 59.5816 48.7411 60.1517 48.8287 60.7116L48.8746 61.0048C48.9196 61.2925 49.1697 61.4484 49.395 61.4484H50.1161C49.5975 61.9976 49.2796 62.7383 49.2796 63.5532C49.2796 64.4173 49.6369 65.1978 50.2119 65.7552C50.0492 65.8406 49.9177 65.9821 49.8464 66.1601C49.712 66.4961 49.8811 66.8555 50.1848 66.9889L50.1848 67.5618C48.7004 66.8667 47.5396 65.5277 47.1263 63.8229L47.0573 63.5384V56.6639ZM52.3454 69.0838L52.3439 69.0837L52.3343 69.0836L52.3289 69.0835C50.2522 69.0163 48.3439 67.9647 47.1688 66.2981C47.2574 66.9983 47.4164 67.6837 47.7013 68.3006C48.0219 68.9946 48.4988 69.5906 49.2172 70.0181C49.9395 70.448 50.9418 70.7288 52.3451 70.7288C53.772 70.7288 54.7854 70.4475 55.5115 70.0176C56.2328 69.5904 56.7061 68.9956 57.021 68.3033C57.3054 67.6777 57.458 66.9823 57.5397 66.2719C56.3662 67.9536 54.4488 69.0159 52.3612 69.0835L52.3483 69.0837L52.3469 69.0837L52.3454 69.0838ZM46.0573 57.1319V63.5981L46.0573 63.7601V63.7602C46.0561 65.1804 46.0546 67.1203 46.7935 68.7199C47.1852 69.5679 47.788 70.3312 48.7058 70.8775C49.6196 71.4213 50.81 71.7288 52.3451 71.7288C53.901 71.7288 55.1025 71.4219 56.021 70.878C56.9441 70.3314 57.5449 69.5669 57.9313 68.7172C58.6407 67.1571 58.6364 65.2709 58.6332 63.8665V63.8654V63.8643C58.633 63.7735 58.6328 63.6847 58.6328 63.5981V57.1319L63.1706 57.7137C63.9286 57.8109 64.4716 58.4937 64.3956 59.2542C64.3569 59.6413 64.1601 59.9953 63.8517 60.2325L63.3485 60.6196C63.1751 60.753 63.1085 60.9838 63.1843 61.1891L63.8905 63.1017C64.855 65.7139 66.1389 68.1969 67.7128 70.4941L67.7904 70.6072C68.308 71.3626 68.5849 72.2569 68.5849 73.1726C68.5849 73.3322 68.6483 73.4853 68.7612 73.5982L68.9411 73.7781V76.9256L68.8357 77.031C68.6751 77.1915 68.5849 77.4093 68.5849 77.6364V78.6807H52.3451H36.1052V77.6364C36.1052 77.4093 36.015 77.1916 35.8544 77.031L35.749 76.9256V73.7781L35.9289 73.5982C36.0418 73.4853 36.1052 73.3322 36.1052 73.1726C36.1052 72.2569 36.3822 71.3626 36.8998 70.6072L36.4873 70.3246L36.8998 70.6072L36.9773 70.4941C38.5513 68.1969 39.8351 65.7139 40.7996 63.1017L41.5058 61.1891C41.5816 60.9838 41.5151 60.753 41.3416 60.6196L40.8384 60.2325C40.5301 59.9953 40.3333 59.6413 40.2946 59.2542C40.2185 58.4938 40.7615 57.8109 41.5195 57.7137L46.0573 57.1319ZM50.1247 59.4137L54.601 59.4137C54.7093 59.4137 54.7675 59.4759 54.7809 59.5125C54.8914 59.8149 54.9246 60.1346 54.8791 60.4484H49.803C49.772 60.1233 49.829 59.7947 49.9718 59.4906C49.9853 59.4619 50.0356 59.4137 50.1247 59.4137ZM52.346 61.4868C51.2048 61.4868 50.2796 62.412 50.2796 63.5532C50.2796 64.6945 51.2048 65.6197 52.346 65.6197C53.4873 65.6197 54.4125 64.6945 54.4125 63.5532C54.4125 62.412 53.4873 61.4868 52.346 61.4868ZM53.5061 66.6653H52.3455H51.1848L51.1848 67.8918C51.5575 68.0034 51.947 68.0689 52.3454 68.0832C52.7437 68.0689 53.1333 68.0034 53.506 67.8918L53.5061 66.6653Z" fill="white"/>
</g>
<defs>
<clipPath id="clip0_2143_15252">
<rect x="5" y="5" width="94" height="94" rx="47" fill="white"/>
</clipPath>
</defs>
</svg>
