<svg width="104" height="104" viewBox="0 0 104 104" fill="none" xmlns="http://www.w3.org/2000/svg">
<g clip-path="url(#clip0_2183_18019)">
<circle cx="52" cy="52" r="48" stroke="#B73E38"/>
<g clip-path="url(#clip1_2183_18019)">
<path d="M17.9995 27.2114C26.2967 31.8517 46.5311 39.7777 61.0918 34.3601C60.2941 35.7351 58.6225 38.4592 57.963 38.986M17.9995 27.2114L19.911 25.7528C34.1313 14.9018 53.5658 11.1638 70.4043 19.6856C74.9563 21.9893 78.7298 24.3344 80.5845 26.4497M17.9995 27.2114C42.363 16.9833 66.1259 21.0197 80.5845 26.4497M57.963 38.986C57.9214 39.0192 57.8839 39.0436 57.8509 39.0585C57.8039 39.0796 57.8446 39.0531 57.963 38.986ZM57.963 38.986C59.602 38.0566 76.1368 29.3379 81.1925 31.3644M90.141 30.9301C87.7603 29.5061 84.5165 27.9264 80.5845 26.4497" stroke="#B73E38"/>
<path fill-rule="evenodd" clip-rule="evenodd" d="M75.7324 55.3696L65.3819 54.0426V68.5237C65.3819 68.7041 65.3823 68.8882 65.3827 69.0757C65.3885 72.1032 65.3961 76.0201 63.9322 79.2396C63.1463 80.9678 61.9336 82.5067 60.0736 83.6081C58.2183 84.7067 55.7549 85.3487 52.4995 85.3487C49.2904 85.3487 46.8508 84.7061 45.0049 83.6075C43.155 82.5065 41.9371 80.9688 41.1396 79.2423C39.6128 75.937 39.6152 71.8992 39.617 68.8349L39.6171 68.5237V54.0426L29.2667 55.3696C27.339 55.6167 25.9581 57.3532 26.1515 59.287C26.25 60.2715 26.7504 61.1717 27.5346 61.7749L28.6111 62.603C28.7846 62.7364 28.8511 62.9672 28.7753 63.1725L27.2645 67.2642C25.2172 72.8088 22.4922 78.079 19.1514 82.9548L18.9855 83.1969C17.8132 84.9078 17.1858 86.9333 17.1858 89.0073C17.1858 89.1977 17.1102 89.3803 16.9756 89.5149L16.5006 89.9899C16.4514 90.039 16.4238 90.1057 16.4238 90.1751V97.1638C16.4238 97.2333 16.4514 97.2999 16.5006 97.3491L16.8162 97.6647C17.0529 97.9014 17.1858 98.2224 17.1858 98.5571V101.099C17.1858 101.244 17.3031 101.361 17.4478 101.361H52.4995H87.5512C87.6959 101.361 87.8132 101.244 87.8132 101.099V98.5571C87.8132 98.2224 87.9462 97.9014 88.1829 97.6647L88.4985 97.3491C88.5476 97.2999 88.5752 97.2333 88.5752 97.1638V90.1751C88.5752 90.1057 88.5476 90.039 88.4985 89.9899L88.0235 89.5149C87.8889 89.3803 87.8132 89.1977 87.8132 89.0073C87.8132 86.9333 87.1859 84.9078 86.0136 83.1969L85.8477 82.9548C82.5069 78.079 79.7818 72.8088 77.7346 67.2642L76.2238 63.1725C76.148 62.9672 76.2145 62.7364 76.388 62.603L77.4644 61.7749C78.2487 61.1717 78.7491 60.2715 78.8475 59.287C79.0409 57.3532 77.6601 55.6167 75.7324 55.3696ZM64.3819 53.6887C64.3819 53.2736 64.7464 52.9529 65.1581 53.0057L75.8595 54.3777C78.3243 54.6937 80.0898 56.9139 79.8426 59.3865C79.7167 60.6453 79.0768 61.7963 78.0742 62.5676L77.2893 63.1713L78.6727 66.9178C80.6914 72.3851 83.3784 77.5818 86.6726 82.3896L86.8385 82.6317C88.1027 84.4767 88.7894 86.6551 88.8126 88.8898L89.2056 89.2828C89.4423 89.5195 89.5752 89.8404 89.5752 90.1751V97.1638C89.5752 97.4985 89.4423 97.8195 89.2056 98.0562L88.89 98.3718C88.8408 98.4209 88.8132 98.4876 88.8132 98.5571V101.099C88.8132 101.796 88.2482 102.361 87.5512 102.361H52.4995H17.4478C16.7508 102.361 16.1858 101.796 16.1858 101.099V98.5571C16.1858 98.4876 16.1582 98.4209 16.1091 98.3718L15.7935 98.0562C15.5568 97.8195 15.4238 97.4985 15.4238 97.1638V90.1751C15.4238 89.8405 15.5568 89.5195 15.7935 89.2828L16.1864 88.8898C16.2097 86.6551 16.8963 84.4767 18.1605 82.6317L18.3264 82.3896C21.6206 77.5818 24.3077 72.3851 26.3264 66.9178L27.7097 63.1713L26.9249 62.5676C25.9222 61.7963 25.2823 60.6453 25.1565 59.3865C24.9092 56.9139 26.6748 54.6937 29.1395 54.3777L39.841 53.0057C40.2526 52.9529 40.6171 53.2736 40.6171 53.6887V68.464L40.7807 69.1388C41.7811 73.2652 44.7348 76.4351 48.4459 77.8644L48.446 75.3234H48.4308C47.8598 75.3234 47.4693 74.7466 47.6814 74.2164C47.8506 73.7933 48.2604 73.5159 48.716 73.5159H49.3359C47.6381 72.4584 46.5081 70.5748 46.5081 68.4273C46.5081 66.2895 47.6279 64.4132 49.3129 63.353H46.1836C45.9432 63.353 45.6803 63.187 45.6332 62.8857L45.535 62.2585C45.3653 61.1744 45.526 60.0698 45.9969 59.067C46.3093 58.4018 47.0066 58.0001 47.7447 58.0001L57.3214 58.0001C58.1382 58.0001 58.9013 58.4781 59.1807 59.2424C59.513 60.1515 59.6092 61.1206 59.4604 62.0715L59.3342 62.8775C59.2863 63.1835 59.019 63.353 58.7734 63.353H55.6847C57.3697 64.4132 58.4895 66.2895 58.4895 68.4273C58.4895 70.5748 57.3595 72.4584 55.6617 73.5159H56.2817C56.7373 73.5159 57.1471 73.7933 57.3163 74.2164C57.5284 74.7466 57.1379 75.3234 56.5669 75.3234H56.5516L56.5515 77.865C60.2634 76.436 63.2179 73.2657 64.2183 69.1388L64.3819 68.464V53.6887ZM52.4834 79.6896C47.3881 79.5247 42.7867 76.4725 40.659 71.8292C40.7535 74.1926 41.0595 76.6844 42.0474 78.8229C42.7738 80.3955 43.8658 81.7659 45.5163 82.7482C47.1708 83.7328 49.4222 84.3487 52.4995 84.3487C55.6259 84.3487 57.9012 83.7323 59.5641 82.7476C61.2223 81.7657 62.3075 80.3965 63.0219 78.8257C63.9988 76.6772 64.2765 74.1736 64.3538 71.7991C62.2322 76.4593 57.622 79.5244 52.5157 79.6896C52.5049 79.69 52.4941 79.69 52.4834 79.6896ZM57.3214 59.0001H47.7447C47.3554 59.0001 47.0338 59.2116 46.902 59.4921C46.5148 60.3168 46.3846 61.2197 46.523 62.1038L46.562 62.353H58.4041L58.4724 61.9168C58.5948 61.1348 58.5161 60.337 58.2415 59.5857C58.1218 59.2583 57.7655 59.0001 57.3214 59.0001ZM47.5081 68.4273C47.5081 65.671 49.7425 63.4366 52.4988 63.4366C55.2551 63.4366 57.4895 65.671 57.4895 68.4273C57.4895 71.1836 55.2551 73.418 52.4988 73.418C49.7425 73.418 47.5081 71.1836 47.5081 68.4273ZM49.446 74.8234L49.4461 74.5159H52.4989H55.5517L55.5517 74.8233L55.5515 78.1246C54.5804 78.459 53.5532 78.6535 52.4987 78.6892C51.4443 78.6535 50.4171 78.459 49.4459 78.1246L49.446 74.8234Z" fill="#838D97"/>
</g>
</g>
<defs>
<clipPath id="clip0_2183_18019">
<rect width="104" height="104" fill="white"/>
</clipPath>
<clipPath id="clip1_2183_18019">
<rect x="6" y="-1" width="92" height="100" rx="46" fill="white"/>
</clipPath>
</defs>
</svg>
